<svg width="12" height="7" viewBox="0 0 12 7" fill="none" xmlns="http://www.w3.org/2000/svg">
<path d="M5.86328 6.32178C6.06836 6.31592 6.25586 6.23975 6.4082 6.07568L10.8613 1.51709C10.9902 1.38818 11.0605 1.22412 11.0605 1.03076C11.0605 0.644043 10.7559 0.333496 10.3691 0.333496C10.1816 0.333496 10 0.409668 9.86523 0.544434L5.86914 4.65186L1.86133 0.544434C1.72656 0.415527 1.55078 0.333496 1.35742 0.333496C0.970703 0.333496 0.666016 0.644043 0.666016 1.03076C0.666016 1.22412 0.736328 1.38818 0.865234 1.51709L5.32422 6.07568C5.48242 6.23975 5.6582 6.32178 5.86328 6.32178Z" fill="#CA9D75"/>
</svg>
