<svg width="26" height="24" viewBox="0 0 26 24" fill="none" xmlns="http://www.w3.org/2000/svg">
<path d="M25.3834 0.135858C25.1761 -0.00678519 24.911 -0.0391622 24.6754 0.0485006L16.8866 2.94932L9.09776 0.0485006C9.07315 0.0393373 9.04762 0.0368937 9.02271 0.0304794C8.98827 0.0216214 8.95444 0.0100144 8.91968 0.00573819C8.88862 0.00207284 8.85848 0.00543262 8.82742 0.00543262C8.79666 0.00543262 8.76621 0.00207284 8.73546 0.00573819C8.69978 0.0100144 8.66503 0.0219268 8.63027 0.0310902C8.60598 0.0375046 8.58137 0.0396427 8.55769 0.0485006L0.498853 3.04981C0.19868 3.1616 0 3.44658 0 3.76485V23.2364C0 23.4869 0.123636 23.7214 0.330928 23.8641C0.461331 23.9539 0.614493 24 0.768885 24C0.859921 24 0.951572 23.9838 1.03892 23.9514L8.82772 21.0506L16.6165 23.9514C16.6258 23.9551 16.6359 23.9563 16.6454 23.9591C16.6574 23.9633 16.6694 23.9655 16.6814 23.9688C16.7491 23.9878 16.8177 24 16.8866 24C16.9555 24 17.024 23.9878 17.0917 23.9688C17.104 23.9655 17.1157 23.963 17.1277 23.9591C17.1372 23.956 17.1471 23.9548 17.1566 23.9514L25.2154 20.9501C25.5156 20.8383 25.7143 20.5534 25.7143 20.2351V0.763548C25.7143 0.512778 25.5907 0.278501 25.3834 0.135858ZM1.53777 4.29389L8.05884 1.86529V19.7057L1.53777 22.1343V4.29389ZM9.59661 1.86529L16.1177 4.29389V22.1343L9.59661 19.7057V1.86529ZM24.1765 19.7057L17.6554 22.1343V4.29389L24.1765 1.86529V19.7057Z" fill="#CA9D75"/>
</svg>
