<svg width="32" height="32" viewBox="0 0 32 32" fill="none" xmlns="http://www.w3.org/2000/svg">
<g filter="url(#filter0_b_769_91)">
<mask id="path-1-inside-1_769_91" fill="white">
<path d="M0 16C0 24.8366 7.16344 32 16 32C24.8366 32 32 24.8366 32 16C32 7.16344 24.8366 0 16 0C7.16344 0 0 7.16344 0 16ZM30.9849 16C30.9849 24.276 24.276 30.9849 16 30.9849C7.72404 30.9849 1.01505 24.276 1.01505 16C1.01505 7.72404 7.72404 1.01505 16 1.01505C24.276 1.01505 30.9849 7.72404 30.9849 16Z"/>
</mask>
<path d="M0 16C0 24.8366 7.16344 32 16 32C24.8366 32 32 24.8366 32 16C32 7.16344 24.8366 0 16 0C7.16344 0 0 7.16344 0 16ZM30.9849 16C30.9849 24.276 24.276 30.9849 16 30.9849C7.72404 30.9849 1.01505 24.276 1.01505 16C1.01505 7.72404 7.72404 1.01505 16 1.01505C24.276 1.01505 30.9849 7.72404 30.9849 16Z" fill="#181D24" fill-opacity="0.5"/>
<path d="M0 16C0 24.8366 7.16344 32 16 32C24.8366 32 32 24.8366 32 16C32 7.16344 24.8366 0 16 0C7.16344 0 0 7.16344 0 16ZM30.9849 16C30.9849 24.276 24.276 30.9849 16 30.9849C7.72404 30.9849 1.01505 24.276 1.01505 16C1.01505 7.72404 7.72404 1.01505 16 1.01505C24.276 1.01505 30.9849 7.72404 30.9849 16Z" stroke="#484848" stroke-width="2" mask="url(#path-1-inside-1_769_91)"/>
</g>
<g filter="url(#filter1_b_769_91)">
<mask id="path-2-inside-2_769_91" fill="white">
<path d="M26.8668 27.7437C28.5049 26.2278 29.8078 24.3861 30.6917 22.3367C31.5756 20.2873 32.021 18.0757 31.9992 15.844C31.9775 13.6122 31.489 11.4097 30.5653 9.37795C29.6416 7.34621 28.303 5.5302 26.6356 4.04662C24.9682 2.56304 23.0089 1.44471 20.8835 0.763498C18.7582 0.0822852 16.5138 -0.14674 14.2947 0.0911402C12.0755 0.32902 9.93068 1.02854 7.99799 2.14476C6.0653 3.26097 4.38752 4.76918 3.07245 6.57246L3.89259 7.17055C5.12422 5.48167 6.69557 4.06914 8.50564 3.02374C10.3157 1.97834 12.3245 1.3232 14.4028 1.10041C16.4812 0.877622 18.5832 1.09212 20.5737 1.73011C22.5643 2.36811 24.3993 3.41549 25.9609 4.80495C27.5225 6.19441 28.7762 7.89521 29.6413 9.79805C30.5064 11.7009 30.9638 13.7637 30.9842 15.8539C31.0046 17.944 30.5875 20.0153 29.7597 21.9347C28.9318 23.8541 27.7116 25.579 26.1774 26.9986L26.8668 27.7437Z"/>
</mask>
<path d="M26.8668 27.7437C28.5049 26.2278 29.8078 24.3861 30.6917 22.3367C31.5756 20.2873 32.021 18.0757 31.9992 15.844C31.9775 13.6122 31.489 11.4097 30.5653 9.37795C29.6416 7.34621 28.303 5.5302 26.6356 4.04662C24.9682 2.56304 23.0089 1.44471 20.8835 0.763498C18.7582 0.0822852 16.5138 -0.14674 14.2947 0.0911402C12.0755 0.32902 9.93068 1.02854 7.99799 2.14476C6.0653 3.26097 4.38752 4.76918 3.07245 6.57246L3.89259 7.17055C5.12422 5.48167 6.69557 4.06914 8.50564 3.02374C10.3157 1.97834 12.3245 1.3232 14.4028 1.10041C16.4812 0.877622 18.5832 1.09212 20.5737 1.73011C22.5643 2.36811 24.3993 3.41549 25.9609 4.80495C27.5225 6.19441 28.7762 7.89521 29.6413 9.79805C30.5064 11.7009 30.9638 13.7637 30.9842 15.8539C31.0046 17.944 30.5875 20.0153 29.7597 21.9347C28.9318 23.8541 27.7116 25.579 26.1774 26.9986L26.8668 27.7437Z" fill="#181D24" fill-opacity="0.5"/>
<path d="M26.8668 27.7437C28.5049 26.2278 29.8078 24.3861 30.6917 22.3367C31.5756 20.2873 32.021 18.0757 31.9992 15.844C31.9775 13.6122 31.489 11.4097 30.5653 9.37795C29.6416 7.34621 28.303 5.5302 26.6356 4.04662C24.9682 2.56304 23.0089 1.44471 20.8835 0.763498C18.7582 0.0822852 16.5138 -0.14674 14.2947 0.0911402C12.0755 0.32902 9.93068 1.02854 7.99799 2.14476C6.0653 3.26097 4.38752 4.76918 3.07245 6.57246L3.89259 7.17055C5.12422 5.48167 6.69557 4.06914 8.50564 3.02374C10.3157 1.97834 12.3245 1.3232 14.4028 1.10041C16.4812 0.877622 18.5832 1.09212 20.5737 1.73011C22.5643 2.36811 24.3993 3.41549 25.9609 4.80495C27.5225 6.19441 28.7762 7.89521 29.6413 9.79805C30.5064 11.7009 30.9638 13.7637 30.9842 15.8539C31.0046 17.944 30.5875 20.0153 29.7597 21.9347C28.9318 23.8541 27.7116 25.579 26.1774 26.9986L26.8668 27.7437Z" stroke="#AC835E" stroke-width="2" mask="url(#path-2-inside-2_769_91)"/>
</g>
<defs>
<filter id="filter0_b_769_91" x="-8" y="-8" width="48" height="48" filterUnits="userSpaceOnUse" color-interpolation-filters="sRGB">
<feFlood flood-opacity="0" result="BackgroundImageFix"/>
<feGaussianBlur in="BackgroundImageFix" stdDeviation="4"/>
<feComposite in2="SourceAlpha" operator="in" result="effect1_backgroundBlur_769_91"/>
<feBlend mode="normal" in="SourceGraphic" in2="effect1_backgroundBlur_769_91" result="shape"/>
</filter>
<filter id="filter1_b_769_91" x="-4.92773" y="-8" width="44.9277" height="43.7437" filterUnits="userSpaceOnUse" color-interpolation-filters="sRGB">
<feFlood flood-opacity="0" result="BackgroundImageFix"/>
<feGaussianBlur in="BackgroundImageFix" stdDeviation="4"/>
<feComposite in2="SourceAlpha" operator="in" result="effect1_backgroundBlur_769_91"/>
<feBlend mode="normal" in="SourceGraphic" in2="effect1_backgroundBlur_769_91" result="shape"/>
</filter>
</defs>
</svg>
