<svg width="129" height="34" viewBox="0 0 129 34" fill="none" xmlns="http://www.w3.org/2000/svg">
<path d="M21.264 8.712C21.264 6.36533 20.5307 4.664 19.064 3.608C17.6267 2.52266 15.8227 1.98 13.652 1.98C13.0653 1.98 12.464 1.99466 11.848 2.024C11.232 2.024 10.616 2.024 10 2.024C9.70667 2.024 9.41333 2.112 9.12 2.288C8.82667 2.464 8.68 2.71333 8.68 3.036V15.532C9.32533 16.0013 10.1173 16.28 11.056 16.368C11.9947 16.456 12.8307 16.5 13.564 16.5C16.0867 16.5 17.9933 15.8253 19.284 14.476C20.604 13.1267 21.264 11.2053 21.264 8.712ZM26.104 8.58C26.104 10.4867 25.7373 12.0413 25.004 13.244C24.3 14.4467 23.3467 15.3853 22.144 16.06C20.9413 16.7347 19.5773 17.204 18.052 17.468C16.556 17.7027 15.016 17.82 13.432 17.82C12.64 17.82 11.848 17.776 11.056 17.688C10.264 17.6 9.48667 17.4973 8.724 17.38V30.536C8.724 30.976 8.91467 31.2693 9.296 31.416C9.67733 31.5627 10.1027 31.636 10.572 31.636C11.0413 31.636 11.4227 31.636 11.716 31.636C11.892 31.636 12.068 31.636 12.244 31.636C12.4493 31.6067 12.64 31.592 12.816 31.592C13.08 31.592 13.212 31.7093 13.212 31.944C13.212 32.3253 13.1827 32.5893 13.124 32.736C13.0653 32.8533 12.8307 32.912 12.42 32.912C11.4227 32.912 10.44 32.8827 9.472 32.824C8.504 32.7653 7.536 32.736 6.568 32.736C5.57067 32.736 4.55867 32.78 3.532 32.868C2.53467 32.9267 1.53733 32.956 0.54 32.956C0.246667 32.956 0.1 32.7653 0.1 32.384C0.1 32.208 0.129333 32.0467 0.188 31.9C0.246667 31.7533 0.393333 31.68 0.628 31.68C0.98 31.68 1.332 31.6947 1.684 31.724C2.036 31.724 2.388 31.724 2.74 31.724C3.092 31.724 3.4 31.636 3.664 31.46C3.95733 31.284 4.11867 31.0053 4.148 30.624C4.20667 30.096 4.22133 29.568 4.192 29.04C4.192 28.4827 4.192 27.94 4.192 27.412C4.192 26.356 4.192 25.3 4.192 24.244C4.192 23.1587 4.192 22.088 4.192 21.032V13.332C4.192 11.6013 4.17733 9.88533 4.148 8.184C4.148 6.45333 4.148 4.73733 4.148 3.036C4.148 2.508 3.884 2.2 3.356 2.112C2.85733 1.99467 2.41733 1.936 2.036 1.936C1.772 1.936 1.508 1.95067 1.244 1.98C0.98 1.98 0.730667 1.98 0.496 1.98C0.290667 1.98 0.173333 1.892 0.144 1.716C0.144 1.51066 0.144 1.34933 0.144 1.232C0.144 1.11467 0.173333 1.012 0.232 0.923999C0.290667 0.806665 0.378667 0.747998 0.496 0.747998C1.464 0.747998 2.432 0.777332 3.4 0.836C4.368 0.894666 5.35067 0.923999 6.348 0.923999C7.87333 0.923999 9.39867 0.894666 10.924 0.836C12.4493 0.777332 13.9747 0.747998 15.5 0.747998C16.732 0.747998 17.964 0.879998 19.196 1.144C20.4573 1.408 21.6013 1.848 22.628 2.464C23.684 3.08 24.52 3.88666 25.136 4.884C25.7813 5.88133 26.104 7.11333 26.104 8.58ZM47.577 19.932C46.6384 17.292 45.6997 14.652 44.761 12.012C43.8224 9.34267 42.8837 6.688 41.945 4.048C41.0357 6.688 40.1117 9.328 39.173 11.968C38.2344 14.608 37.3104 17.2627 36.401 19.932H47.577ZM59.985 32.34C59.985 32.516 59.9557 32.6773 59.897 32.824C59.8677 32.9413 59.765 33 59.589 33C59.3837 33 58.8704 32.9853 58.049 32.956C57.257 32.9267 56.5677 32.912 55.981 32.912C55.0717 32.912 54.1624 32.912 53.253 32.912C52.373 32.912 51.4784 32.9413 50.569 33C50.0997 33.0293 49.6157 33.044 49.117 33.044C48.6477 33.0733 48.1784 33.088 47.709 33.088C47.5624 33.088 47.4597 33.044 47.401 32.956C47.3717 32.8387 47.357 32.7213 47.357 32.604L47.401 32.252C47.401 32.164 47.4304 32.076 47.489 31.988C47.5477 31.8707 47.6357 31.812 47.753 31.812H49.909C50.173 31.812 50.4664 31.7533 50.789 31.636C51.141 31.5187 51.317 31.2987 51.317 30.976C51.317 30.888 51.2144 30.5507 51.009 29.964C50.8037 29.348 50.5544 28.6147 50.261 27.764C49.9677 26.884 49.6597 26.004 49.337 25.124C49.0144 24.244 48.7357 23.4667 48.501 22.792C48.2664 22.088 48.105 21.6333 48.017 21.428H36.005C35.917 21.692 35.741 22.176 35.477 22.88C35.213 23.5547 34.9197 24.332 34.597 25.212C34.3037 26.092 33.9957 26.9573 33.673 27.808C33.3797 28.6587 33.1304 29.392 32.925 30.008C32.749 30.5947 32.661 30.9613 32.661 31.108C32.661 31.5187 32.881 31.7827 33.321 31.9C33.761 32.0173 34.1277 32.076 34.421 32.076C34.7144 32.076 34.9784 32.076 35.213 32.076C35.4477 32.076 35.6384 32.0613 35.785 32.032C35.8437 32.032 35.9464 32.032 36.093 32.032C36.269 32.0027 36.3717 31.988 36.401 31.988C36.577 31.988 36.6797 32.0907 36.709 32.296C36.7677 32.5013 36.7824 32.6627 36.753 32.78C36.7237 32.8973 36.6504 32.9707 36.533 33C36.445 33 36.3424 33 36.225 33C35.3744 33 34.509 32.9853 33.629 32.956C32.749 32.9267 31.8837 32.912 31.033 32.912C30.3877 32.912 29.757 32.9267 29.141 32.956C28.525 32.9853 27.8944 33 27.249 33C26.985 33 26.853 32.8533 26.853 32.56C26.853 32.1493 27.0584 31.944 27.469 31.944C27.6157 31.944 27.7917 31.9587 27.997 31.988C28.2024 31.988 28.4224 31.988 28.657 31.988C28.9797 31.988 29.3024 31.9 29.625 31.724C29.977 31.5187 30.2704 31.1667 30.505 30.668C30.6517 30.404 30.945 29.7 31.385 28.556C31.825 27.412 32.3677 25.9893 33.013 24.288C33.6584 22.5573 34.333 20.7093 35.037 18.744C35.7704 16.7493 36.489 14.7693 37.193 12.804C37.897 10.8387 38.5277 9.02 39.085 7.348C39.6717 5.676 40.141 4.29733 40.493 3.212C40.845 2.09733 41.021 1.43733 41.021 1.232C41.021 1.17333 40.977 1.1 40.889 1.012C40.801 0.894666 40.757 0.821332 40.757 0.791998C40.757 0.674664 40.801 0.601331 40.889 0.571998C41.1824 0.513332 41.4904 0.469333 41.813 0.44C42.1357 0.410665 42.4437 0.381331 42.737 0.351998C43.1184 0.293332 43.4997 0.249332 43.881 0.219997C44.2624 0.161331 44.6437 0.117332 45.025 0.0879989L56.421 30.888C56.5384 31.1813 56.7584 31.416 57.081 31.592C57.433 31.7387 57.7557 31.812 58.049 31.812C58.313 31.812 58.577 31.812 58.841 31.812C59.1344 31.7827 59.4277 31.768 59.721 31.768C59.8384 31.768 59.9117 31.8413 59.941 31.988C59.9704 32.1347 59.985 32.252 59.985 32.34ZM94.1913 1.496C94.1913 1.584 94.1619 1.716 94.1033 1.892C94.0446 2.03867 93.9419 2.112 93.7953 2.112C93.5606 2.112 93.3259 2.112 93.0913 2.112C92.8566 2.08267 92.6219 2.068 92.3873 2.068C91.5953 2.068 91.0379 2.156 90.7153 2.332C90.4219 2.47867 90.2459 2.74267 90.1873 3.124C90.1579 3.50533 90.1433 4.03333 90.1433 4.708V32.472C90.1433 32.736 90.0406 32.868 89.8353 32.868L87.8553 32.912C87.7379 32.2667 87.5179 31.6213 87.1953 30.976C86.9019 30.3307 86.5499 29.744 86.1393 29.216C82.9713 25.0507 79.8033 20.9147 76.6353 16.808C73.4673 12.672 70.3433 8.50667 67.2633 4.312V30.58C67.2633 30.9907 67.4099 31.284 67.7033 31.46C68.0259 31.6067 68.3779 31.6947 68.7593 31.724C69.1699 31.724 69.5219 31.724 69.8153 31.724C70.0499 31.724 70.2699 31.724 70.4753 31.724C70.7099 31.6947 70.9446 31.68 71.1793 31.68C71.4433 31.68 71.5753 31.8413 71.5753 32.164C71.5753 32.3987 71.5459 32.604 71.4873 32.78C71.4579 32.956 71.2819 33.044 70.9593 33.044C70.6953 33.044 70.4166 33.0293 70.1233 33C69.8593 32.9413 69.5953 32.8973 69.3313 32.868C68.8913 32.8093 68.4366 32.7947 67.9673 32.824C67.4979 32.824 67.0433 32.824 66.6033 32.824C65.7819 32.824 64.9753 32.868 64.1833 32.956C63.4206 33.0147 62.6286 33.044 61.8073 33.044C61.6019 33.044 61.4993 32.912 61.4993 32.648C61.4993 32.208 61.5433 31.944 61.6313 31.856C61.7193 31.768 61.9686 31.724 62.3793 31.724C62.6139 31.724 62.8339 31.7387 63.0393 31.768C63.2739 31.768 63.4939 31.768 63.6993 31.768C64.1686 31.768 64.5793 31.7093 64.9313 31.592C65.3126 31.4747 65.5179 31.1373 65.5473 30.58C65.6059 29.172 65.6206 27.7493 65.5913 26.312C65.5619 24.8747 65.5473 23.452 65.5473 22.044C65.5473 18.964 65.5619 15.884 65.5913 12.804C65.6499 9.724 65.6793 6.62933 65.6793 3.52C65.6793 2.992 65.5326 2.62533 65.2393 2.42C64.9753 2.18533 64.6379 2.05333 64.2273 2.024C63.8166 1.99466 63.4059 1.98 62.9953 1.98C62.8486 1.98 62.6873 1.99466 62.5113 2.024C62.3353 2.024 62.1739 2.024 62.0273 2.024C61.6459 2.024 61.4553 1.87733 61.4553 1.584C61.4553 1.37867 61.4699 1.20267 61.4993 1.056C61.5579 0.879998 61.7193 0.791998 61.9832 0.791998C62.7459 0.791998 63.5086 0.821332 64.2713 0.879999C65.0339 0.909332 65.7966 0.923999 66.5593 0.923999C67.0873 0.923999 67.6153 0.923999 68.1433 0.923999C68.7006 0.894666 69.2433 0.879999 69.7713 0.879999C70.8566 2.34667 71.9713 3.784 73.1153 5.192C74.2593 6.6 75.4033 8.008 76.5473 9.416C78.5419 11.8507 80.5366 14.2853 82.5312 16.72C84.5259 19.1253 86.5206 21.5453 88.5153 23.98V3.212C88.5153 2.80133 88.2953 2.508 87.8553 2.332C87.4153 2.156 87.0339 2.068 86.7113 2.068C86.3299 2.068 85.9633 2.08267 85.6113 2.112C85.2593 2.14133 84.8926 2.156 84.5113 2.156C84.3059 2.156 84.2033 2.00933 84.2033 1.716C84.2033 1.628 84.2033 1.54 84.2033 1.452C84.2033 1.33467 84.2179 1.24667 84.2473 1.188C84.2473 0.923998 84.4086 0.791998 84.7313 0.791998C85.1419 0.791998 85.5673 0.821332 86.0073 0.879999C86.4473 0.909332 86.8726 0.923999 87.2833 0.923999C88.3979 0.923999 89.4979 0.909332 90.5833 0.879999C91.6686 0.850666 92.7539 0.791999 93.8393 0.703999C94.0153 0.821332 94.1179 0.938666 94.1473 1.056C94.1766 1.144 94.1913 1.29066 94.1913 1.496ZM123.683 16.808C123.683 15.1067 123.493 13.376 123.111 11.616C122.759 9.856 122.173 8.228 121.351 6.732C120.53 5.236 119.43 4.03333 118.051 3.124C116.673 2.18533 114.971 1.716 112.947 1.716C110.982 1.716 109.31 2.2 107.931 3.168C106.553 4.136 105.438 5.39733 104.587 6.952C103.737 8.47733 103.106 10.1347 102.695 11.924C102.314 13.684 102.123 15.3853 102.123 17.028C102.123 18.7587 102.299 20.504 102.651 22.264C103.003 23.9947 103.59 25.5933 104.411 27.06C105.233 28.4973 106.333 29.656 107.711 30.536C109.119 31.416 110.865 31.856 112.947 31.856C115.03 31.856 116.761 31.4013 118.139 30.492C119.518 29.5827 120.603 28.3947 121.395 26.928C122.217 25.432 122.803 23.804 123.155 22.044C123.507 20.284 123.683 18.5387 123.683 16.808ZM128.479 16.676C128.479 19.932 127.878 22.8067 126.675 25.3C125.502 27.764 123.757 29.6853 121.439 31.064C119.151 32.4427 116.321 33.132 112.947 33.132C109.662 33.132 106.846 32.472 104.499 31.152C102.182 29.8027 100.407 27.9253 99.1753 25.52C97.9433 23.0853 97.3273 20.2547 97.3273 17.028C97.3273 14.7693 97.6939 12.6427 98.4273 10.648C99.1606 8.65333 100.217 6.89333 101.595 5.368C102.974 3.84267 104.617 2.65467 106.523 1.804C108.459 0.923999 110.601 0.483999 112.947 0.483999C116.233 0.483999 119.019 1.17333 121.307 2.552C123.625 3.90133 125.399 5.79333 126.631 8.228C127.863 10.6333 128.479 13.4493 128.479 16.676Z" fill="#F9F0EC"/>
</svg>
