<svg width="264" height="128" viewBox="0 0 264 128" fill="none" xmlns="http://www.w3.org/2000/svg">
<path d="M22.264 26.712C22.264 24.3653 21.5307 22.664 20.064 21.608C18.6267 20.5227 16.8227 19.98 14.652 19.98C14.0653 19.98 13.464 19.9947 12.848 20.024C12.232 20.024 11.616 20.024 11 20.024C10.7067 20.024 10.4133 20.112 10.12 20.288C9.82667 20.464 9.68 20.7133 9.68 21.036V33.532C10.3253 34.0013 11.1173 34.28 12.056 34.368C12.9947 34.456 13.8307 34.5 14.564 34.5C17.0867 34.5 18.9933 33.8253 20.284 32.476C21.604 31.1267 22.264 29.2053 22.264 26.712ZM27.104 26.58C27.104 28.4867 26.7373 30.0413 26.004 31.244C25.3 32.4467 24.3467 33.3853 23.144 34.06C21.9413 34.7347 20.5773 35.204 19.052 35.468C17.556 35.7027 16.016 35.82 14.432 35.82C13.64 35.82 12.848 35.776 12.056 35.688C11.264 35.6 10.4867 35.4973 9.724 35.38V48.536C9.724 48.976 9.91467 49.2693 10.296 49.416C10.6773 49.5627 11.1027 49.636 11.572 49.636C12.0413 49.636 12.4227 49.636 12.716 49.636C12.892 49.636 13.068 49.636 13.244 49.636C13.4493 49.6067 13.64 49.592 13.816 49.592C14.08 49.592 14.212 49.7093 14.212 49.944C14.212 50.3253 14.1827 50.5893 14.124 50.736C14.0653 50.8533 13.8307 50.912 13.42 50.912C12.4227 50.912 11.44 50.8827 10.472 50.824C9.504 50.7653 8.536 50.736 7.568 50.736C6.57067 50.736 5.55867 50.78 4.532 50.868C3.53467 50.9267 2.53733 50.956 1.54 50.956C1.24667 50.956 1.1 50.7653 1.1 50.384C1.1 50.208 1.12933 50.0467 1.188 49.9C1.24667 49.7533 1.39333 49.68 1.628 49.68C1.98 49.68 2.332 49.6947 2.684 49.724C3.036 49.724 3.388 49.724 3.74 49.724C4.092 49.724 4.4 49.636 4.664 49.46C4.95733 49.284 5.11867 49.0053 5.148 48.624C5.20667 48.096 5.22133 47.568 5.192 47.04C5.192 46.4827 5.192 45.94 5.192 45.412C5.192 44.356 5.192 43.3 5.192 42.244C5.192 41.1587 5.192 40.088 5.192 39.032V31.332C5.192 29.6013 5.17733 27.8853 5.148 26.184C5.148 24.4533 5.148 22.7373 5.148 21.036C5.148 20.508 4.884 20.2 4.356 20.112C3.85733 19.9947 3.41733 19.936 3.036 19.936C2.772 19.936 2.508 19.9507 2.244 19.98C1.98 19.98 1.73067 19.98 1.496 19.98C1.29067 19.98 1.17333 19.892 1.144 19.716C1.144 19.5107 1.144 19.3493 1.144 19.232C1.144 19.1147 1.17333 19.012 1.232 18.924C1.29067 18.8067 1.37867 18.748 1.496 18.748C2.464 18.748 3.432 18.7773 4.4 18.836C5.368 18.8947 6.35067 18.924 7.348 18.924C8.87333 18.924 10.3987 18.8947 11.924 18.836C13.4493 18.7773 14.9747 18.748 16.5 18.748C17.732 18.748 18.964 18.88 20.196 19.144C21.4573 19.408 22.6013 19.848 23.628 20.464C24.684 21.08 25.52 21.8867 26.136 22.884C26.7813 23.8813 27.104 25.1133 27.104 26.58ZM49.061 26.58C49.061 23.9987 48.3864 22.2387 47.037 21.3C45.717 20.332 43.8544 19.848 41.449 19.848H39.997C39.7037 19.848 39.337 19.8773 38.897 19.936C38.4864 19.9653 38.105 20.068 37.753 20.244C37.4304 20.3907 37.269 20.6693 37.269 21.08V33.312C37.5917 33.4293 37.9584 33.5027 38.369 33.532C38.7797 33.5613 39.161 33.576 39.513 33.576C40.6864 33.576 41.8304 33.4733 42.945 33.268C44.089 33.0627 45.1157 32.7107 46.025 32.212C46.9637 31.7133 47.697 31.0093 48.225 30.1C48.7824 29.1907 49.061 28.0173 49.061 26.58ZM58.697 50.296C58.697 50.5013 58.4917 50.6627 58.081 50.78C57.6704 50.8973 57.1864 50.9707 56.629 51C56.0717 51.0587 55.5437 51.088 55.045 51.088C54.5757 51.088 54.253 51.088 54.077 51.088C52.9037 51.088 51.965 50.9707 51.261 50.736C50.557 50.472 49.8677 49.812 49.193 48.756C47.7557 46.4387 46.3624 44.092 45.013 41.716C43.693 39.34 42.373 36.9493 41.053 34.544L37.269 34.676V48.624C37.269 49.064 37.445 49.3573 37.797 49.504C38.149 49.6507 38.501 49.724 38.853 49.724C39.2637 49.724 39.6597 49.7093 40.041 49.68C40.4224 49.6507 40.8037 49.636 41.185 49.636C41.3904 49.636 41.5077 49.724 41.537 49.9C41.5957 50.076 41.625 50.2373 41.625 50.384C41.625 50.6187 41.5517 50.78 41.405 50.868C41.2877 50.9267 41.1264 50.956 40.921 50.956C39.6304 50.956 38.325 50.9413 37.005 50.912C35.685 50.8533 34.3797 50.824 33.089 50.824C32.385 50.824 31.681 50.8533 30.977 50.912C30.3024 50.9413 29.613 50.956 28.909 50.956C28.733 50.956 28.6157 50.8827 28.557 50.736C28.5277 50.56 28.513 50.4133 28.513 50.296C28.513 49.9147 28.6744 49.724 28.997 49.724C29.261 49.724 29.5104 49.7387 29.745 49.768C30.009 49.768 30.2584 49.768 30.493 49.768C30.933 49.768 31.4024 49.724 31.901 49.636C32.429 49.5187 32.7224 49.1813 32.781 48.624C32.8397 47.8907 32.8544 47.04 32.825 46.072C32.825 45.0747 32.825 44.2093 32.825 43.476C32.825 42.508 32.825 41.54 32.825 40.572C32.825 39.5747 32.825 38.592 32.825 37.624C32.825 35.6 32.825 33.576 32.825 31.552C32.8544 29.528 32.869 27.504 32.869 25.48C32.869 24.7467 32.869 24.0133 32.869 23.28C32.869 22.5173 32.8397 21.784 32.781 21.08C32.7224 20.4933 32.4144 20.1707 31.857 20.112C31.329 20.024 30.845 19.98 30.405 19.98C30.229 19.98 30.053 19.9947 29.877 20.024C29.701 20.024 29.525 20.024 29.349 20.024C28.909 20.024 28.689 19.7747 28.689 19.276C28.689 18.9533 28.8357 18.792 29.129 18.792C30.1264 18.792 31.109 18.8213 32.077 18.88C33.0744 18.9387 34.0717 18.968 35.069 18.968C36.4477 18.968 37.8117 18.9093 39.161 18.792C40.5104 18.6747 41.8597 18.616 43.209 18.616C44.3237 18.616 45.497 18.7333 46.729 18.968C47.9904 19.2027 49.1637 19.584 50.249 20.112C51.3344 20.64 52.2144 21.3733 52.889 22.312C53.593 23.2213 53.945 24.38 53.945 25.788C53.945 27.548 53.4464 29.0733 52.449 30.364C51.481 31.6253 50.2197 32.608 48.665 33.312C48.1077 33.576 47.5357 33.7813 46.949 33.928C46.3624 34.0453 45.7757 34.1627 45.189 34.28C46.5384 36.568 47.9464 38.8267 49.413 41.056C50.909 43.2853 52.4197 45.4853 53.945 47.656C54.385 48.272 54.8397 48.7707 55.309 49.152C55.8077 49.504 56.4237 49.7533 57.157 49.9C57.333 49.9293 57.6264 49.944 58.037 49.944C58.477 49.944 58.697 50.0613 58.697 50.296ZM74.0984 50.208C74.0984 50.3253 74.0837 50.4867 74.0544 50.692C74.0251 50.868 73.9224 50.956 73.7464 50.956C73.3944 50.956 73.0424 50.9413 72.6904 50.912C72.3677 50.8827 72.0304 50.868 71.6784 50.868C70.2411 50.78 68.7744 50.736 67.2784 50.736C66.6331 50.736 65.9877 50.7507 65.3424 50.78C64.6971 50.8093 64.0517 50.8387 63.4064 50.868C63.1131 50.8973 62.8051 50.9267 62.4824 50.956C62.1891 50.9853 61.8811 51 61.5584 51C61.3237 51 61.2064 50.8533 61.2064 50.56C61.2064 50.3547 61.2211 50.164 61.2504 49.988C61.2797 49.812 61.4264 49.724 61.6904 49.724C61.9837 49.724 62.2624 49.7387 62.5264 49.768C62.7904 49.768 63.0691 49.768 63.3624 49.768C63.7144 49.768 64.1251 49.68 64.5944 49.504C65.0931 49.328 65.3424 49.0347 65.3424 48.624V21.3C65.3424 20.8013 65.1517 20.4787 64.7704 20.332C64.3891 20.156 63.9344 20.068 63.4064 20.068C62.9077 20.068 62.4384 20.0827 61.9984 20.112C61.5877 20.112 61.3531 20.0387 61.2944 19.892C61.2651 19.8333 61.2504 19.7013 61.2504 19.496C61.2504 19.3787 61.2651 19.2467 61.2944 19.1C61.3237 18.924 61.4117 18.836 61.5584 18.836C62.5264 18.836 63.4944 18.8653 64.4624 18.924C65.4597 18.9827 66.4424 19.012 67.4104 19.012H69.3904C69.8597 19.012 70.3291 19.012 70.7984 19.012C71.2971 19.012 71.7811 18.9973 72.2504 18.968C72.4851 18.9387 72.7051 18.924 72.9104 18.924C73.1451 18.8947 73.3651 18.88 73.5704 18.88C73.8931 18.88 74.0544 19.0413 74.0544 19.364C74.0544 19.54 74.0397 19.7013 74.0104 19.848C73.9811 19.9947 73.8491 20.068 73.6144 20.068C73.2624 20.068 72.9104 20.068 72.5584 20.068C72.2357 20.0387 71.8984 20.024 71.5464 20.024C71.1944 20.024 70.8131 20.1413 70.4024 20.376C70.0211 20.5813 69.8304 20.8893 69.8304 21.3V48.624C69.8304 49.0053 70.0064 49.284 70.3584 49.46C70.7104 49.636 71.0624 49.724 71.4144 49.724C71.7957 49.724 72.1624 49.724 72.5144 49.724C72.8957 49.6947 73.2771 49.68 73.6584 49.68C73.9517 49.68 74.0984 49.856 74.0984 50.208ZM117.838 50.384C117.838 50.7653 117.662 50.956 117.31 50.956C116.225 50.956 115.154 50.9267 114.098 50.868C113.042 50.8093 111.986 50.78 110.93 50.78C110.432 50.78 109.933 50.7947 109.434 50.824C108.936 50.824 108.437 50.8387 107.938 50.868C107.44 50.8973 106.941 50.9413 106.442 51C105.973 51.0293 105.489 51.044 104.99 51.044C104.726 51.044 104.55 50.9707 104.462 50.824C104.404 50.648 104.374 50.4573 104.374 50.252C104.374 50.1347 104.404 50.0173 104.462 49.9C104.521 49.7533 104.624 49.68 104.77 49.68C104.858 49.6507 104.99 49.636 105.166 49.636C105.372 49.636 105.577 49.6507 105.782 49.68C106.017 49.68 106.237 49.68 106.442 49.68C106.853 49.68 107.308 49.636 107.806 49.548C108.334 49.46 108.628 49.1373 108.686 48.58C108.716 48.492 108.716 48.404 108.686 48.316C108.686 48.228 108.686 48.14 108.686 48.052V21.08H108.422C107.308 24.1013 106.149 27.108 104.946 30.1C103.744 33.0627 102.541 36.0253 101.338 38.988C100.869 40.1907 100.385 41.3933 99.8862 42.596C99.3875 43.7987 98.8889 45.0013 98.3902 46.204C98.1849 46.732 97.9795 47.2747 97.7742 47.832C97.5982 48.3893 97.3782 48.9173 97.1142 49.416C96.9089 49.7387 96.5862 49.9 96.1462 49.9C95.7355 49.9 95.4275 49.7387 95.2222 49.416C94.9875 48.976 94.7675 48.5067 94.5622 48.008C94.3862 47.5093 94.1955 47.0253 93.9902 46.556C93.5502 45.5293 93.1249 44.5173 92.7142 43.52C92.3035 42.5227 91.8929 41.5253 91.4822 40.528C90.1329 37.3013 88.7835 34.0893 87.4342 30.892C86.1142 27.6653 84.7942 24.4533 83.4742 21.256C83.4742 25.8027 83.4742 30.364 83.4742 34.94C83.5035 39.4867 83.5182 44.0333 83.5182 48.58C83.5182 49.1667 83.7675 49.504 84.2662 49.592C84.7942 49.68 85.2782 49.724 85.7182 49.724C86.0115 49.724 86.3049 49.7093 86.5982 49.68C86.8915 49.6507 87.1849 49.636 87.4782 49.636C87.6249 49.636 87.6982 49.724 87.6982 49.9C87.6982 50.0467 87.6835 50.252 87.6542 50.516C87.6249 50.78 87.5075 50.912 87.3022 50.912C86.5102 50.912 85.7035 50.8973 84.8822 50.868C84.0902 50.8093 83.2982 50.78 82.5062 50.78C81.7435 50.78 80.9662 50.8093 80.1742 50.868C79.4115 50.8973 78.6489 50.912 77.8862 50.912C77.8569 50.8533 77.8275 50.8093 77.7982 50.78C77.7982 50.7213 77.7835 50.6773 77.7542 50.648V50.252C77.7542 49.9587 77.8129 49.7973 77.9302 49.768C78.0475 49.7387 78.2089 49.724 78.4142 49.724C78.6489 49.724 78.8689 49.7387 79.0742 49.768C79.2795 49.768 79.4849 49.768 79.6902 49.768C80.1302 49.768 80.5995 49.7093 81.0982 49.592C81.5969 49.4747 81.8609 49.1373 81.8902 48.58C81.9489 48.1107 81.9635 47.6413 81.9342 47.172C81.9342 46.6733 81.9342 46.1893 81.9342 45.72C81.9342 44.7813 81.9195 43.8427 81.8902 42.904C81.8902 41.936 81.8902 40.9827 81.8902 40.044C81.8902 36.9053 81.9049 33.7813 81.9342 30.672C81.9929 27.5627 82.0222 24.4533 82.0222 21.344C82.0222 20.7867 81.7582 20.42 81.2302 20.244C80.7022 20.068 80.2182 19.98 79.7782 19.98C79.5142 19.98 79.2502 19.9947 78.9862 20.024C78.7222 20.0533 78.4582 20.068 78.1942 20.068C78.0182 20.068 77.9009 19.98 77.8422 19.804C77.7835 19.628 77.7542 19.4813 77.7542 19.364C77.7542 18.9533 77.9155 18.748 78.2382 18.748C79.0009 18.748 79.7782 18.7773 80.5702 18.836C81.3622 18.8653 82.1395 18.88 82.9022 18.88C84.3982 18.88 85.8942 18.836 87.3902 18.748L97.8182 43.828C99.4315 39.6333 101.118 35.4827 102.878 31.376C104.638 27.24 106.266 23.06 107.762 18.836C108.496 18.8653 109.214 18.8947 109.918 18.924C110.652 18.924 111.385 18.924 112.118 18.924C112.998 18.924 113.864 18.8947 114.714 18.836C115.594 18.748 116.474 18.704 117.354 18.704C117.53 18.704 117.633 18.792 117.662 18.968C117.692 19.144 117.706 19.2907 117.706 19.408C117.706 19.5253 117.692 19.672 117.662 19.848C117.633 20.024 117.53 20.112 117.354 20.112C116.973 20.112 116.606 20.0973 116.254 20.068C115.902 20.0387 115.55 20.024 115.198 20.024C114.846 20.024 114.406 20.112 113.878 20.288C113.38 20.4347 113.13 20.728 113.13 21.168V48.228C113.13 48.9027 113.321 49.328 113.702 49.504C114.113 49.6507 114.626 49.724 115.242 49.724C115.594 49.724 115.946 49.7093 116.298 49.68C116.65 49.6507 117.017 49.636 117.398 49.636C117.633 49.636 117.765 49.724 117.794 49.9C117.824 50.076 117.838 50.2373 117.838 50.384ZM146.67 43.476C146.67 44.004 146.626 44.5467 146.538 45.104C146.45 45.632 146.377 46.16 146.318 46.688C146.23 47.2747 146.171 47.876 146.142 48.492C146.113 49.0787 146.025 49.6653 145.878 50.252C145.849 50.428 145.761 50.604 145.614 50.78C145.497 50.9267 145.335 51 145.13 51C141.991 51 138.853 50.9853 135.714 50.956C132.575 50.8973 129.437 50.868 126.298 50.868C125.359 50.868 124.406 50.912 123.438 51C122.499 51.0587 121.561 51.088 120.622 51.088C120.475 51.088 120.329 51.044 120.182 50.956C120.065 50.8387 120.006 50.7067 120.006 50.56C120.006 50.384 120.05 50.2227 120.138 50.076C120.226 49.9 120.373 49.812 120.578 49.812C121.194 49.812 121.781 49.7827 122.338 49.724C122.895 49.636 123.35 49.4307 123.702 49.108C124.083 48.756 124.274 48.1987 124.274 47.436V22.18C124.274 21.5053 124.069 21.0653 123.658 20.86C123.247 20.6253 122.749 20.508 122.162 20.508C121.869 20.508 121.59 20.5227 121.326 20.552C121.062 20.552 120.798 20.552 120.534 20.552C120.299 20.552 120.094 20.4933 119.918 20.376C119.742 20.2587 119.654 20.068 119.654 19.804C119.654 19.5693 119.698 19.364 119.786 19.188C119.874 19.012 120.065 18.924 120.358 18.924C120.857 18.924 121.341 18.9387 121.81 18.968C122.309 18.9973 122.793 19.012 123.262 19.012C126.225 19.012 129.187 18.9973 132.15 18.968C135.113 18.9093 138.061 18.88 140.994 18.88C142.343 18.88 143.678 18.836 144.998 18.748C145.115 19.5987 145.262 20.4493 145.438 21.3C145.614 22.1507 145.761 23.0013 145.878 23.852C145.937 24.028 145.981 24.204 146.01 24.38C146.039 24.5267 146.054 24.688 146.054 24.864C146.054 25.1573 145.951 25.3627 145.746 25.48C145.57 25.5973 145.35 25.656 145.086 25.656C144.851 25.656 144.675 25.612 144.558 25.524C144.47 25.4067 144.382 25.2307 144.294 24.996C143.737 23.236 142.989 22.0187 142.05 21.344C141.141 20.6693 139.747 20.332 137.87 20.332H128.718V33.576C129.862 33.576 131.006 33.576 132.15 33.576C133.294 33.5467 134.453 33.5027 135.626 33.444C136.829 33.3853 137.943 33.2827 138.97 33.136C140.026 32.96 141.141 32.7693 142.314 32.564H142.358C142.534 32.564 142.622 32.6373 142.622 32.784C142.622 32.9893 142.534 33.356 142.358 33.884C142.182 34.412 142.05 34.764 141.962 34.94C141.815 35.292 141.581 35.468 141.258 35.468C140.525 35.468 139.762 35.424 138.97 35.336C138.207 35.2187 137.445 35.16 136.682 35.16C136.154 35.1307 135.626 35.1307 135.098 35.16C134.57 35.16 134.027 35.16 133.47 35.16C133.265 35.16 133.045 35.16 132.81 35.16C132.605 35.1307 132.385 35.116 132.15 35.116C131.71 35.116 131.226 35.16 130.698 35.248C130.17 35.3067 129.701 35.4827 129.29 35.776C128.909 36.04 128.718 36.48 128.718 37.096V47.656C128.718 48.6533 128.967 49.24 129.466 49.416C129.965 49.5627 130.625 49.636 131.446 49.636H134.966C135.787 49.636 136.697 49.592 137.694 49.504C138.721 49.416 139.718 49.2253 140.686 48.932C141.654 48.6387 142.446 48.2133 143.062 47.656C143.737 47.04 144.206 46.3653 144.47 45.632C144.763 44.8693 145.101 44.1067 145.482 43.344C145.629 43.08 145.863 42.948 146.186 42.948C146.509 42.948 146.67 43.124 146.67 43.476Z" fill="#F9F0EC"/>
<path d="M55.264 61.712C55.264 59.3653 54.5307 57.664 53.064 56.608C51.6267 55.5227 49.8227 54.98 47.652 54.98C47.0653 54.98 46.464 54.9947 45.848 55.024C45.232 55.024 44.616 55.024 44 55.024C43.7067 55.024 43.4133 55.112 43.12 55.288C42.8267 55.464 42.68 55.7133 42.68 56.036V68.532C43.3253 69.0013 44.1173 69.28 45.056 69.368C45.9947 69.456 46.8307 69.5 47.564 69.5C50.0867 69.5 51.9933 68.8253 53.284 67.476C54.604 66.1267 55.264 64.2053 55.264 61.712ZM60.104 61.58C60.104 63.4867 59.7373 65.0413 59.004 66.244C58.3 67.4467 57.3467 68.3853 56.144 69.06C54.9413 69.7347 53.5773 70.204 52.052 70.468C50.556 70.7027 49.016 70.82 47.432 70.82C46.64 70.82 45.848 70.776 45.056 70.688C44.264 70.6 43.4867 70.4973 42.724 70.38V83.536C42.724 83.976 42.9147 84.2693 43.296 84.416C43.6773 84.5627 44.1027 84.636 44.572 84.636C45.0413 84.636 45.4227 84.636 45.716 84.636C45.892 84.636 46.068 84.636 46.244 84.636C46.4493 84.6067 46.64 84.592 46.816 84.592C47.08 84.592 47.212 84.7093 47.212 84.944C47.212 85.3253 47.1827 85.5893 47.124 85.736C47.0653 85.8533 46.8307 85.912 46.42 85.912C45.4227 85.912 44.44 85.8827 43.472 85.824C42.504 85.7653 41.536 85.736 40.568 85.736C39.5707 85.736 38.5587 85.78 37.532 85.868C36.5347 85.9267 35.5373 85.956 34.54 85.956C34.2467 85.956 34.1 85.7653 34.1 85.384C34.1 85.208 34.1293 85.0467 34.188 84.9C34.2467 84.7533 34.3933 84.68 34.628 84.68C34.98 84.68 35.332 84.6947 35.684 84.724C36.036 84.724 36.388 84.724 36.74 84.724C37.092 84.724 37.4 84.636 37.664 84.46C37.9573 84.284 38.1187 84.0053 38.148 83.624C38.2067 83.096 38.2213 82.568 38.192 82.04C38.192 81.4827 38.192 80.94 38.192 80.412C38.192 79.356 38.192 78.3 38.192 77.244C38.192 76.1587 38.192 75.088 38.192 74.032V66.332C38.192 64.6013 38.1773 62.8853 38.148 61.184C38.148 59.4533 38.148 57.7373 38.148 56.036C38.148 55.508 37.884 55.2 37.356 55.112C36.8573 54.9947 36.4173 54.936 36.036 54.936C35.772 54.936 35.508 54.9507 35.244 54.98C34.98 54.98 34.7307 54.98 34.496 54.98C34.2907 54.98 34.1733 54.892 34.144 54.716C34.144 54.5107 34.144 54.3493 34.144 54.232C34.144 54.1147 34.1733 54.012 34.232 53.924C34.2907 53.8067 34.3787 53.748 34.496 53.748C35.464 53.748 36.432 53.7773 37.4 53.836C38.368 53.8947 39.3507 53.924 40.348 53.924C41.8733 53.924 43.3987 53.8947 44.924 53.836C46.4493 53.7773 47.9747 53.748 49.5 53.748C50.732 53.748 51.964 53.88 53.196 54.144C54.4573 54.408 55.6013 54.848 56.628 55.464C57.684 56.08 58.52 56.8867 59.136 57.884C59.7813 58.8813 60.104 60.1133 60.104 61.58ZM81.577 72.932C80.6384 70.292 79.6997 67.652 78.761 65.012C77.8224 62.3427 76.8837 59.688 75.945 57.048C75.0357 59.688 74.1117 62.328 73.173 64.968C72.2344 67.608 71.3104 70.2627 70.401 72.932H81.577ZM93.985 85.34C93.985 85.516 93.9557 85.6773 93.897 85.824C93.8677 85.9413 93.765 86 93.589 86C93.3837 86 92.8704 85.9853 92.049 85.956C91.257 85.9267 90.5677 85.912 89.981 85.912C89.0717 85.912 88.1624 85.912 87.253 85.912C86.373 85.912 85.4784 85.9413 84.569 86C84.0997 86.0293 83.6157 86.044 83.117 86.044C82.6477 86.0733 82.1784 86.088 81.709 86.088C81.5624 86.088 81.4597 86.044 81.401 85.956C81.3717 85.8387 81.357 85.7213 81.357 85.604L81.401 85.252C81.401 85.164 81.4304 85.076 81.489 84.988C81.5477 84.8707 81.6357 84.812 81.753 84.812H83.909C84.173 84.812 84.4664 84.7533 84.789 84.636C85.141 84.5187 85.317 84.2987 85.317 83.976C85.317 83.888 85.2144 83.5507 85.009 82.964C84.8037 82.348 84.5544 81.6147 84.261 80.764C83.9677 79.884 83.6597 79.004 83.337 78.124C83.0144 77.244 82.7357 76.4667 82.501 75.792C82.2664 75.088 82.105 74.6333 82.017 74.428H70.005C69.917 74.692 69.741 75.176 69.477 75.88C69.213 76.5547 68.9197 77.332 68.597 78.212C68.3037 79.092 67.9957 79.9573 67.673 80.808C67.3797 81.6587 67.1304 82.392 66.925 83.008C66.749 83.5947 66.661 83.9613 66.661 84.108C66.661 84.5187 66.881 84.7827 67.321 84.9C67.761 85.0173 68.1277 85.076 68.421 85.076C68.7144 85.076 68.9784 85.076 69.213 85.076C69.4477 85.076 69.6384 85.0613 69.785 85.032C69.8437 85.032 69.9464 85.032 70.093 85.032C70.269 85.0027 70.3717 84.988 70.401 84.988C70.577 84.988 70.6797 85.0907 70.709 85.296C70.7677 85.5013 70.7824 85.6627 70.753 85.78C70.7237 85.8973 70.6504 85.9707 70.533 86C70.445 86 70.3424 86 70.225 86C69.3744 86 68.509 85.9853 67.629 85.956C66.749 85.9267 65.8837 85.912 65.033 85.912C64.3877 85.912 63.757 85.9267 63.141 85.956C62.525 85.9853 61.8944 86 61.249 86C60.985 86 60.853 85.8533 60.853 85.56C60.853 85.1493 61.0584 84.944 61.469 84.944C61.6157 84.944 61.7917 84.9587 61.997 84.988C62.2024 84.988 62.4224 84.988 62.657 84.988C62.9797 84.988 63.3024 84.9 63.625 84.724C63.977 84.5187 64.2704 84.1667 64.505 83.668C64.6517 83.404 64.945 82.7 65.385 81.556C65.825 80.412 66.3677 78.9893 67.013 77.288C67.6584 75.5573 68.333 73.7093 69.037 71.744C69.7704 69.7493 70.489 67.7693 71.193 65.804C71.897 63.8387 72.5277 62.02 73.085 60.348C73.6717 58.676 74.141 57.2973 74.493 56.212C74.845 55.0973 75.021 54.4373 75.021 54.232C75.021 54.1733 74.977 54.1 74.889 54.012C74.801 53.8947 74.757 53.8213 74.757 53.792C74.757 53.6747 74.801 53.6013 74.889 53.572C75.1824 53.5133 75.4904 53.4693 75.813 53.44C76.1357 53.4107 76.4437 53.3813 76.737 53.352C77.1184 53.2933 77.4997 53.2493 77.881 53.22C78.2624 53.1613 78.6437 53.1173 79.025 53.088L90.421 83.888C90.5384 84.1813 90.7584 84.416 91.081 84.592C91.433 84.7387 91.7557 84.812 92.049 84.812C92.313 84.812 92.577 84.812 92.841 84.812C93.1344 84.7827 93.4277 84.768 93.721 84.768C93.8384 84.768 93.9117 84.8413 93.941 84.988C93.9704 85.1347 93.985 85.252 93.985 85.34ZM128.191 54.496C128.191 54.584 128.162 54.716 128.103 54.892C128.045 55.0387 127.942 55.112 127.795 55.112C127.561 55.112 127.326 55.112 127.091 55.112C126.857 55.0827 126.622 55.068 126.387 55.068C125.595 55.068 125.038 55.156 124.715 55.332C124.422 55.4787 124.246 55.7427 124.187 56.124C124.158 56.5053 124.143 57.0333 124.143 57.708V85.472C124.143 85.736 124.041 85.868 123.835 85.868L121.855 85.912C121.738 85.2667 121.518 84.6213 121.195 83.976C120.902 83.3307 120.55 82.744 120.139 82.216C116.971 78.0507 113.803 73.9147 110.635 69.808C107.467 65.672 104.343 61.5067 101.263 57.312V83.58C101.263 83.9907 101.41 84.284 101.703 84.46C102.026 84.6067 102.378 84.6947 102.759 84.724C103.17 84.724 103.522 84.724 103.815 84.724C104.05 84.724 104.27 84.724 104.475 84.724C104.71 84.6947 104.945 84.68 105.179 84.68C105.443 84.68 105.575 84.8413 105.575 85.164C105.575 85.3987 105.546 85.604 105.487 85.78C105.458 85.956 105.282 86.044 104.959 86.044C104.695 86.044 104.417 86.0293 104.123 86C103.859 85.9413 103.595 85.8973 103.331 85.868C102.891 85.8093 102.437 85.7947 101.967 85.824C101.498 85.824 101.043 85.824 100.603 85.824C99.7819 85.824 98.9753 85.868 98.1833 85.956C97.4206 86.0147 96.6286 86.044 95.8073 86.044C95.6019 86.044 95.4993 85.912 95.4993 85.648C95.4993 85.208 95.5433 84.944 95.6313 84.856C95.7193 84.768 95.9686 84.724 96.3793 84.724C96.6139 84.724 96.8339 84.7387 97.0393 84.768C97.2739 84.768 97.4939 84.768 97.6993 84.768C98.1686 84.768 98.5793 84.7093 98.9313 84.592C99.3126 84.4747 99.5179 84.1373 99.5473 83.58C99.6059 82.172 99.6206 80.7493 99.5913 79.312C99.5619 77.8747 99.5473 76.452 99.5473 75.044C99.5473 71.964 99.5619 68.884 99.5913 65.804C99.6499 62.724 99.6793 59.6293 99.6793 56.52C99.6793 55.992 99.5326 55.6253 99.2393 55.42C98.9753 55.1853 98.6379 55.0533 98.2273 55.024C97.8166 54.9947 97.4059 54.98 96.9953 54.98C96.8486 54.98 96.6873 54.9947 96.5113 55.024C96.3353 55.024 96.1739 55.024 96.0273 55.024C95.6459 55.024 95.4553 54.8773 95.4553 54.584C95.4553 54.3787 95.4699 54.2027 95.4993 54.056C95.5579 53.88 95.7193 53.792 95.9832 53.792C96.7459 53.792 97.5086 53.8213 98.2713 53.88C99.0339 53.9093 99.7966 53.924 100.559 53.924C101.087 53.924 101.615 53.924 102.143 53.924C102.701 53.8947 103.243 53.88 103.771 53.88C104.857 55.3467 105.971 56.784 107.115 58.192C108.259 59.6 109.403 61.008 110.547 62.416C112.542 64.8507 114.537 67.2853 116.531 69.72C118.526 72.1253 120.521 74.5453 122.515 76.98V56.212C122.515 55.8013 122.295 55.508 121.855 55.332C121.415 55.156 121.034 55.068 120.711 55.068C120.33 55.068 119.963 55.0827 119.611 55.112C119.259 55.1413 118.893 55.156 118.511 55.156C118.306 55.156 118.203 55.0093 118.203 54.716C118.203 54.628 118.203 54.54 118.203 54.452C118.203 54.3347 118.218 54.2467 118.247 54.188C118.247 53.924 118.409 53.792 118.731 53.792C119.142 53.792 119.567 53.8213 120.007 53.88C120.447 53.9093 120.873 53.924 121.283 53.924C122.398 53.924 123.498 53.9093 124.583 53.88C125.669 53.8507 126.754 53.792 127.839 53.704C128.015 53.8213 128.118 53.9387 128.147 54.056C128.177 54.144 128.191 54.2907 128.191 54.496ZM157.683 69.808C157.683 68.1067 157.493 66.376 157.111 64.616C156.759 62.856 156.173 61.228 155.351 59.732C154.53 58.236 153.43 57.0333 152.051 56.124C150.673 55.1853 148.971 54.716 146.947 54.716C144.982 54.716 143.31 55.2 141.931 56.168C140.553 57.136 139.438 58.3973 138.587 59.952C137.737 61.4773 137.106 63.1347 136.695 64.924C136.314 66.684 136.123 68.3853 136.123 70.028C136.123 71.7587 136.299 73.504 136.651 75.264C137.003 76.9947 137.59 78.5933 138.411 80.06C139.233 81.4973 140.333 82.656 141.711 83.536C143.119 84.416 144.865 84.856 146.947 84.856C149.03 84.856 150.761 84.4013 152.139 83.492C153.518 82.5827 154.603 81.3947 155.395 79.928C156.217 78.432 156.803 76.804 157.155 75.044C157.507 73.284 157.683 71.5387 157.683 69.808ZM162.479 69.676C162.479 72.932 161.878 75.8067 160.675 78.3C159.502 80.764 157.757 82.6853 155.439 84.064C153.151 85.4427 150.321 86.132 146.947 86.132C143.662 86.132 140.846 85.472 138.499 84.152C136.182 82.8027 134.407 80.9253 133.175 78.52C131.943 76.0853 131.327 73.2547 131.327 70.028C131.327 67.7693 131.694 65.6427 132.427 63.648C133.161 61.6533 134.217 59.8933 135.595 58.368C136.974 56.8427 138.617 55.6547 140.523 54.804C142.459 53.924 144.601 53.484 146.947 53.484C150.233 53.484 153.019 54.1733 155.307 55.552C157.625 56.9013 159.399 58.7933 160.631 61.228C161.863 63.6333 162.479 66.4493 162.479 69.676Z" fill="#F9F0EC"/>
<path d="M191 65.5938C191 69.0521 187.188 74.1042 179.562 80.75C180.208 82.7292 181.354 84.0208 183 84.625C183.458 84.7917 183.896 84.875 184.312 84.875C184.75 84.875 185.083 84.8333 185.312 84.75C185.688 84.6042 185.979 84.5312 186.188 84.5312C186.396 84.5312 186.5 84.6146 186.5 84.7812C186.5 84.9479 186.354 85.1042 186.062 85.25C185.542 85.4792 184.781 85.5938 183.781 85.5938C182.802 85.5938 181.812 85.2292 180.812 84.5C179.812 83.7708 179.052 82.8125 178.531 81.625C169.781 89.1458 155.917 99 136.938 111.188C135.708 111.958 134.927 112.344 134.594 112.344C134.24 112.344 134.062 112.25 134.062 112.062C134.062 111.875 134.177 111.729 134.406 111.625C134.615 111.521 134.823 111.427 135.031 111.344C135.219 111.26 135.552 111.052 136.031 110.719C136.51 110.385 137.198 109.708 138.094 108.688C138.99 107.667 139.958 106.417 141 104.938C142.042 103.458 143.177 101.75 144.406 99.8125C148.427 93.4375 150.865 89.5938 151.719 88.2812L154.562 84.25C156.562 81.5208 158.448 79.1771 160.219 77.2188C156.156 80.1146 152.844 81.5625 150.281 81.5625C148.719 81.5625 147.625 81.0104 147 79.9062C146.417 78.8438 146.542 77.625 147.375 76.25C147.854 75.4375 148.427 74.6875 149.094 74L150.656 72.3125C152.135 70.7083 152.854 69.6354 152.812 69.0938C152.792 68.5312 152.677 68.125 152.469 67.875C152.26 67.6042 151.979 67.3958 151.625 67.25C150.979 66.9375 149.979 66.7812 148.625 66.7812C146.042 66.7812 143.438 67.8646 140.812 70.0312C140.438 70.3646 140.156 70.5312 139.969 70.5312C139.781 70.5312 139.688 70.4271 139.688 70.2188C139.667 69.9062 139.917 69.5521 140.438 69.1562C140.979 68.7396 141.594 68.3438 142.281 67.9688C142.969 67.5938 143.688 67.2708 144.438 67C146.083 66.4167 147.49 66.125 148.656 66.125C149.823 66.125 150.75 66.1979 151.438 66.3438C152.146 66.4896 152.75 66.7083 153.25 67C155.688 68.4375 155.552 71 152.844 74.6875C152.406 75.2708 151.938 75.8125 151.438 76.3125L150.219 77.5938C149.302 78.5729 148.844 79.2604 148.844 79.6562C148.844 80.3854 149.25 80.75 150.062 80.75C150.896 80.75 151.781 80.625 152.719 80.375C153.677 80.1042 154.812 79.625 156.125 78.9375C159.042 77.3542 162.458 74.7396 166.375 71.0938L167.188 70.375C168.604 69.1875 169.479 68.5938 169.812 68.5938C170.167 68.5938 170.344 68.6979 170.344 68.9062C170.365 69.0729 170.292 69.1979 170.125 69.2812C169.958 69.3646 169.771 69.4792 169.562 69.625C168.208 70.5 167.24 71.3438 166.656 72.1562C166.094 72.9688 165.646 73.6667 165.312 74.25C158.396 87.0208 151.594 96.8333 144.906 103.688L140.688 107.812L146.062 104.125L152.188 99.6875L158.781 94.75L165.469 89.5625C171.469 84.6875 175.615 81.2292 177.906 79.1875C177.885 79.0417 177.875 78.9062 177.875 78.7812V78.375C177.875 74.7292 179.073 71.25 181.469 67.9375C182.906 65.9375 184.479 64.5208 186.188 63.6875C187.021 63.2708 187.802 63.0625 188.531 63.0625C190.177 63.0625 191 63.9062 191 65.5938ZM179.125 78.0938L183.5 74C187.771 69.7708 189.906 66.8438 189.906 65.2188C189.906 64.7812 189.75 64.4479 189.438 64.2188C189.146 63.9688 188.875 63.8438 188.625 63.8438C187.562 63.8438 186.469 64.2292 185.344 65C184.219 65.7708 183.198 66.8021 182.281 68.0938C180.177 71.0521 179.125 74.2708 179.125 77.75V78.0938ZM189.281 82.75C188.99 83.0208 188.656 83.2396 188.281 83.4062C187.906 83.5521 187.479 83.625 187 83.625C186.521 83.625 186.104 83.4479 185.75 83.0938C185.417 82.7188 185.25 82.3021 185.25 81.8438C185.25 81.3854 185.333 80.9792 185.5 80.625C185.667 80.2708 185.896 79.9583 186.188 79.6875C186.792 79.0625 187.448 78.75 188.156 78.75C188.885 78.75 189.417 78.9479 189.75 79.3438C190.104 79.7188 190.281 80.1354 190.281 80.5938C190.281 81.0521 190.188 81.4583 190 81.8125C189.833 82.1667 189.594 82.4792 189.281 82.75ZM169.438 109.219C169.438 109.865 170.052 110.188 171.281 110.188C172.51 110.188 173.667 109.906 174.75 109.344C175.854 108.781 176.958 108.083 178.062 107.25C179.188 106.396 180.271 105.469 181.312 104.469L184.125 101.656C184.958 100.781 185.646 100.031 186.188 99.4062C186.729 98.7604 187.052 98.3854 187.156 98.2812L187.781 98.8438C187.573 99.0521 187.177 99.5 186.594 100.188C186.031 100.854 185.323 101.646 184.469 102.562C183.615 103.458 182.656 104.406 181.594 105.406C180.531 106.406 179.417 107.323 178.25 108.156C175.562 110.094 173.208 111.062 171.188 111.062C169.896 111.062 168.865 110.833 168.094 110.375C167.323 109.896 166.938 109.354 166.938 108.75C166.938 108.146 167 107.604 167.125 107.125C167.25 106.646 167.479 106.073 167.812 105.406C168.146 104.74 168.615 103.958 169.219 103.062C169.802 102.167 170.573 101.094 171.531 99.8438C172.469 98.5938 173.615 97.1458 174.969 95.5L179.781 89.8125C180.031 89.875 180.542 89.9062 181.312 89.9062H182.781C183.323 89.9062 183.76 89.8854 184.094 89.8438C177.198 98.0729 173.323 102.76 172.469 103.906C171.594 105.031 170.948 105.917 170.531 106.562C169.802 107.667 169.438 108.552 169.438 109.219ZM183.906 109.156C183.906 109.844 184.406 110.188 185.406 110.188C186.406 110.188 187.469 109.927 188.594 109.406C189.74 108.865 190.865 108.188 191.969 107.375C193.094 106.562 194.177 105.677 195.219 104.719C196.26 103.74 197.208 102.812 198.062 101.938L200.219 99.625C200.802 98.9583 201.198 98.5208 201.406 98.3125L202.031 98.8438C201.802 99.0729 201.375 99.5312 200.75 100.219C200.146 100.906 199.396 101.698 198.5 102.594C197.625 103.49 196.635 104.438 195.531 105.438C194.448 106.438 193.312 107.354 192.125 108.188C189.354 110.104 186.927 111.062 184.844 111.062C183.969 111.062 183.25 110.823 182.688 110.344C182.104 109.865 181.812 109.354 181.812 108.812C181.812 108.25 181.844 107.802 181.906 107.469C181.948 107.135 182.052 106.76 182.219 106.344C182.385 105.906 182.625 105.406 182.938 104.844C183.25 104.26 183.667 103.562 184.188 102.75L188.969 95.6875L213.125 61.1562C214.625 61.3646 216.073 61.3646 217.469 61.1562C197.594 88.7812 187.302 103.125 186.594 104.188C185.885 105.229 185.365 106.021 185.031 106.562C184.698 107.083 184.448 107.51 184.281 107.844C184.031 108.344 183.906 108.781 183.906 109.156ZM198.156 109.156C198.156 109.844 198.656 110.188 199.656 110.188C200.656 110.188 201.719 109.927 202.844 109.406C203.99 108.865 205.115 108.188 206.219 107.375C207.344 106.562 208.427 105.677 209.469 104.719C210.51 103.74 211.458 102.812 212.312 101.938L214.469 99.625C215.052 98.9583 215.448 98.5208 215.656 98.3125L216.281 98.8438C216.052 99.0729 215.625 99.5312 215 100.219C214.396 100.906 213.646 101.698 212.75 102.594C211.875 103.49 210.885 104.438 209.781 105.438C208.698 106.438 207.562 107.354 206.375 108.188C203.604 110.104 201.177 111.062 199.094 111.062C198.219 111.062 197.5 110.823 196.938 110.344C196.354 109.865 196.062 109.354 196.062 108.812C196.062 108.25 196.094 107.802 196.156 107.469C196.198 107.135 196.302 106.76 196.469 106.344C196.635 105.906 196.875 105.406 197.188 104.844C197.5 104.26 197.917 103.562 198.438 102.75L203.219 95.6875L227.375 61.1562C228.875 61.3646 230.323 61.3646 231.719 61.1562C211.844 88.7812 201.552 103.125 200.844 104.188C200.135 105.229 199.615 106.021 199.281 106.562C198.948 107.083 198.698 107.51 198.531 107.844C198.281 108.344 198.156 108.781 198.156 109.156ZM227.906 111.062C225.823 111.062 224.781 110.417 224.781 109.125C224.781 108.062 225.385 106.729 226.594 105.125L228.562 102.625L228.25 102.5C224.75 106.812 221.448 109.521 218.344 110.625C217.49 110.917 216.75 111.062 216.125 111.062C213.562 111.062 212.281 109.698 212.281 106.969C212.281 103.76 213.562 100.698 216.125 97.7812C219.917 93.3646 223.729 90.75 227.562 89.9375C228.708 89.7083 229.688 89.5938 230.5 89.5938C231.312 89.5938 231.948 89.6562 232.406 89.7812C232.885 89.8854 233.302 90.0417 233.656 90.25C234.406 90.7292 234.781 91.3229 234.781 92.0312C234.781 92.7188 234.656 93.375 234.406 94L237.469 90.2188C238.031 90.3854 238.552 90.4688 239.031 90.4688C240.26 90.4688 241.146 90.4271 241.688 90.3438L231.156 103.031C228.656 105.948 227.406 108 227.406 109.188C227.406 109.854 227.802 110.188 228.594 110.188C229.385 110.188 230.292 109.948 231.312 109.469C232.354 108.99 233.385 108.375 234.406 107.625C235.427 106.875 236.417 106.042 237.375 105.125C238.354 104.208 239.25 103.312 240.062 102.438C240.896 101.562 241.625 100.75 242.25 100L243.75 98.3125L244.406 98.8438L242.812 100.656C236.812 107.594 231.844 111.062 227.906 111.062ZM219.25 99.8125C216.312 103.375 214.844 106.292 214.844 108.562C214.844 109.604 215.312 110.125 216.25 110.125C219.292 110.125 223.677 106.76 229.406 100.031L232.031 96.875C233.281 94.9792 233.906 93.6042 233.906 92.75C233.906 91.2917 233.177 90.5625 231.719 90.5625C229.74 90.5625 226.896 92.25 223.188 95.625C221.917 96.7917 220.604 98.1875 219.25 99.8125ZM253.188 105.25C253.438 105.292 253.75 105.312 254.125 105.312C254.521 105.312 254.99 105.167 255.531 104.875C256.073 104.583 256.625 104.208 257.188 103.75C257.771 103.292 258.344 102.792 258.906 102.25C259.469 101.688 259.979 101.156 260.438 100.656C260.917 100.135 261.333 99.6667 261.688 99.25L262.406 98.3125L263.094 98.8438C262.844 99.0938 262.521 99.4375 262.125 99.875L260.812 101.375C257.917 104.5 255.625 106.062 253.938 106.062H253.406C253.24 106.062 253.073 106.042 252.906 106C251.156 109.812 247.438 111.719 241.75 111.719C239.271 111.719 237.469 111.125 236.344 109.938C235.865 109.417 235.625 108.75 235.625 107.938C235.625 107.125 235.823 106.438 236.219 105.875C236.594 105.292 237.042 104.812 237.562 104.438C238.625 103.667 239.583 103.281 240.438 103.281C241.271 103.281 241.688 103.677 241.688 104.469C241.625 105.01 241.167 105.417 240.312 105.688C240.042 105.771 239.781 105.812 239.531 105.812C239.26 105.812 239.01 105.729 238.781 105.562C238.531 105.375 238.333 105.24 238.188 105.156C238.062 105.281 237.906 105.427 237.719 105.594C237.51 105.76 237.312 105.958 237.125 106.188C236.667 106.75 236.438 107.333 236.438 107.938C236.438 108.521 236.635 108.99 237.031 109.344C237.427 109.698 237.896 109.969 238.438 110.156C239.25 110.448 240.104 110.594 241 110.594C241.875 110.594 242.781 110.406 243.719 110.031C244.677 109.656 245.615 109.031 246.531 108.156C249.052 105.76 250.417 102.208 250.625 97.5C250.75 94.3333 251.135 91.8542 251.781 90.0625C251.802 90 251.812 89.9062 251.812 89.7812L244.438 98.8438C244.021 99.3438 243.719 99.6667 243.531 99.8125C243.323 99.9583 243.219 100.031 243.219 100.031C242.969 100.052 242.802 99.9896 242.719 99.8438C242.677 99.7396 242.771 99.5417 243 99.25C248.375 92.8333 251.396 89.1875 252.062 88.3125C252.396 86.6875 252.938 85.875 253.688 85.875C254.042 85.875 254.333 85.9688 254.562 86.1562C254.812 86.3438 254.938 86.5833 254.938 86.875C254.917 87.2708 254.594 87.8333 253.969 88.5625C253.365 89.2708 252.99 89.7292 252.844 89.9375C252.719 90.125 252.635 90.2917 252.594 90.4375C252.552 90.5625 252.531 90.6875 252.531 90.8125V91.1875C252.51 91.75 252.562 92.4167 252.688 93.1875L253.469 98.375C253.927 101.208 253.833 103.5 253.188 105.25Z" fill="#CA9D75"/>
</svg>
