<svg width="25" height="28" viewBox="0 0 25 28" fill="none" xmlns="http://www.w3.org/2000/svg">
<path d="M12.6533 3.12107C13.6945 5.38619 13.9124 7.74742 13.765 10.192C13.9572 10.0382 14.0758 9.894 14.047 9.62167C13.8996 8.29848 13.8323 6.96889 13.7202 5.6457C13.6561 4.87678 13.5632 4.11106 13.4799 3.34534C13.4542 3.09865 13.4895 2.85516 13.5023 2.54759C13.6817 2.74943 13.7618 2.93525 13.8163 3.12428C14.095 4.07582 14.3097 5.04018 14.3705 6.03337C14.441 7.20277 14.4891 8.37217 14.3001 9.53837C14.2969 9.5672 14.2808 9.59604 14.2584 9.67293C14.5179 9.49352 14.5884 9.3173 14.5852 9.07381C14.5435 7.32772 14.5083 5.58483 14.4891 3.83874C14.4827 3.24282 14.5435 2.65011 14.6621 2.02536C14.8191 2.18555 14.8543 2.36176 14.8992 2.52516C15.0305 3.01535 15.0978 3.51835 15.1427 4.02135C15.2932 5.69376 15.226 7.35655 14.8447 9.00012C14.8383 9.02255 14.8415 9.04498 14.8383 9.12828C15.101 8.80789 15.3926 8.62527 15.383 8.1511C15.3541 6.48831 15.2484 4.82872 15.2836 3.16593C15.2932 2.68535 15.3509 2.20478 15.4631 1.66012C15.6072 1.92604 15.6937 2.1407 15.7418 2.37138C15.9532 3.41262 16.0526 4.46028 15.9949 5.52396C15.9436 6.45307 15.8635 7.37578 15.6104 8.28887C15.9084 8.10305 16.0205 7.86596 16.0429 7.52315C16.1455 6.13269 16.1391 4.74542 16.0942 3.35496C16.0718 2.66613 16.0782 1.98051 16.2512 1.3045C16.2704 1.23401 16.2576 1.12829 16.3473 1.11867C16.4402 1.10906 16.4434 1.21799 16.4723 1.28527C16.7254 1.85876 16.8215 2.4739 16.8856 3.08904C17.0393 4.52436 16.8247 5.92123 16.4082 7.29248C16.3858 7.36937 16.3569 7.44626 16.3185 7.57121C16.5395 7.45587 16.6357 7.26364 16.7991 7.15471C17.0169 7.01374 16.9368 6.80549 16.9368 6.61967C16.9432 5.04658 16.9817 3.4767 17.3277 1.92925C17.4622 1.33013 17.6737 0.763048 17.962 0.211987C18.0742 1.38139 18.0069 2.54438 17.8948 3.71379C18.1895 2.50594 18.4939 1.3045 19.2308 0.263249C19.2019 1.2212 19.0225 2.15672 18.8623 3.09865C19.3013 2.04138 19.7081 0.971298 20.3938 0.0357761C20.3617 0.529168 20.1855 0.977705 20.083 1.44867C20.2816 1.10906 20.4803 0.769456 20.6821 0.433052C20.7526 0.317714 20.8263 0.202376 20.9064 0.0934454C20.9416 0.0453877 20.9865 -0.0218929 21.0506 0.00694166C21.1242 0.0389801 21.0794 0.115872 21.0634 0.167134C20.9064 0.615671 20.7494 1.06741 20.5828 1.51275C20.429 1.91963 20.2624 2.32332 20.1118 2.73661C20.7206 1.84915 21.2716 0.916832 22.0534 0.0934454C22.0245 0.541983 20.6661 2.82632 19.6473 4.23281C19.9773 3.86116 20.3105 3.48952 20.6341 3.11146C20.9608 2.73341 21.3069 2.37458 21.6753 2.03818C22.0405 1.70177 22.3962 1.34935 22.8415 1.10906C22.5596 1.51915 22.268 1.91643 21.9412 2.28808C22.4058 1.9773 22.8223 1.59284 23.3477 1.37178C22.9376 1.90041 22.4282 2.32973 21.9701 2.8103C22.3801 2.6437 22.7486 2.40021 23.1779 2.27846C22.3705 2.9769 21.4542 3.52476 20.5764 4.12388C21.7554 3.44146 23.0241 2.98651 24.3249 2.59564C23.4278 3.20758 22.4378 3.63689 21.4831 4.13669C22.4666 3.82592 23.4502 3.52155 24.4723 3.34214C23.4887 3.86437 22.4346 4.21679 21.4094 4.6397C22.4699 4.43145 23.5303 4.21999 24.6164 4.13028C24.3793 4.33213 24.0782 4.3898 23.7994 4.48912C23.5143 4.59164 23.2228 4.66533 22.9344 4.77105C23.4855 4.74863 24.0301 4.61086 24.6164 4.61086C24.5299 4.76465 24.405 4.78066 24.296 4.81591C22.9857 5.21639 21.6561 5.53357 20.3169 5.80589C19.5544 5.95968 18.7918 6.11667 18.0293 6.27045C17.8563 6.30569 17.7025 6.36657 17.5712 6.58443C19.8299 5.97249 22.0726 5.77386 24.3505 6.02375C23.8315 6.21278 23.2996 6.34093 22.755 6.42744C21.2204 6.67413 19.6729 6.73821 18.1222 6.74462C17.5584 6.74782 17.0746 6.83753 16.783 7.36616C19.2019 6.86636 21.6048 6.82472 23.9532 7.86917C23.8731 8.00052 23.7802 7.96849 23.7033 7.97489C22.7486 8.07101 21.8002 7.93645 20.8551 7.83713C19.4646 7.68975 18.0678 7.60966 16.6709 7.61927C16.4787 7.61927 16.2993 7.75383 16.0109 8.14149C18.5099 7.86917 20.9448 7.86596 23.3413 8.50673C22.9697 8.60605 22.5916 8.6445 22.2135 8.67653C20.6405 8.80789 19.0738 8.67333 17.5071 8.52595C17.0393 8.4811 16.5716 8.43945 16.1102 8.36897C15.8699 8.33052 15.7001 8.3946 15.5496 8.5676C15.4566 8.67653 15.3605 8.78226 15.2196 8.94245C16.5459 8.8143 17.8147 8.8175 19.0834 8.88799C20.3649 8.95847 21.5696 9.33012 22.7518 9.79467C22.4987 9.87797 22.2488 9.84594 21.9989 9.8139C20.9128 9.67293 19.8235 9.54798 18.731 9.46148C18.622 9.45187 18.5099 9.44546 18.3978 9.45507C19.5736 9.66011 20.7526 9.86196 21.8291 10.4194C20.8968 10.4931 19.9805 10.3778 19.0578 10.2881C19.91 10.5732 20.8135 10.711 21.5856 11.2172C21.1723 11.2749 20.7622 11.3229 20.3521 11.2781C18.1126 11.0282 15.8571 10.9961 13.6112 10.8584C13.3774 10.8455 13.2973 10.9096 13.1339 11.2076C15.7738 11.0858 18.3721 11.2108 20.8615 12.3353C20.7462 12.4443 20.6533 12.4058 20.5732 12.4058C18.9649 12.361 17.395 12.0117 15.8091 11.7907C14.9184 11.6689 14.0277 11.5376 13.1371 11.4062C12.7846 11.3549 12.7302 11.6721 12.5604 11.8676C12.8647 11.8644 13.1723 11.8612 13.4767 11.8547C14.5435 11.8291 15.6104 11.8612 16.6581 12.079C17.6609 12.2841 18.6349 12.582 19.5287 13.101C19.5479 13.1139 19.5704 13.1203 19.5864 13.1363C19.6409 13.1907 19.7658 13.2164 19.7306 13.3093C19.7049 13.3798 19.596 13.3445 19.5223 13.3445C18.26 13.3221 17.0105 13.1203 15.7482 13.0626C14.4506 13.0017 13.1499 12.9441 11.8555 12.8383C11.5416 12.8127 11.4711 13.069 11.2788 13.2484C11.4486 13.2901 11.5736 13.2644 11.6985 13.2484C12.9096 13.1074 14.1303 13.0754 15.3413 13.1779C16.4755 13.274 17.5744 13.556 18.6092 14.0494C18.6765 14.0814 18.7406 14.1263 18.8015 14.1679C18.8175 14.1775 18.8271 14.2032 18.8591 14.248C18.59 14.2961 18.3369 14.2993 18.087 14.2993C16.9336 14.3025 15.7995 14.1167 14.6621 13.9501C13.5247 13.7835 12.3842 13.6521 11.2436 13.5015C11.1379 13.4887 11.0514 13.5015 10.9777 13.5848C10.8207 13.7674 10.6605 13.9469 10.449 14.1839C12.9384 13.8764 15.3093 13.9757 17.5103 15.238C17.4142 15.3501 17.3117 15.3149 17.2188 15.3117C16.6196 15.2925 16.0365 15.1547 15.4438 15.0746C13.7682 14.8439 12.0766 14.703 10.4042 14.4467C10.2824 14.4274 10.2023 14.4595 10.1287 14.5524C9.96846 14.7606 9.80507 14.9689 9.61604 15.2124C10.8335 15.1323 12.0189 15.1867 13.1915 15.395C14.3577 15.6032 15.5015 15.8788 16.5331 16.5067C16.28 16.5484 16.0333 16.5516 15.7963 16.5003C13.7874 16.0582 11.7402 15.8243 9.72177 15.4398C9.51672 15.4014 9.37255 15.427 9.25401 15.6064C9.1643 15.7442 9.06178 15.8724 8.94324 16.0326C9.29886 16.0838 9.62245 16.0422 9.94283 16.0518C11.737 16.1191 13.4671 16.4715 15.1138 17.1891C15.3093 17.2756 15.4887 17.3878 15.6425 17.532C15.6905 17.5768 15.7738 17.6377 15.7354 17.721C15.7033 17.7883 15.6136 17.7658 15.5464 17.7722C14.55 17.8491 13.5536 17.8267 12.5572 17.7562C11.0353 17.6505 9.51031 17.5608 7.98849 17.4615C7.88597 17.4551 7.79306 17.4551 7.72257 17.5448C7.53355 17.7851 7.34452 18.0285 7.11064 18.3265C9.70575 17.8748 12.2336 17.6249 14.6877 18.6949C14.4635 18.7718 14.2392 18.8359 14.0085 18.8135C11.7338 18.6116 9.44944 18.6629 7.16831 18.5604C7.00812 18.554 6.89278 18.5988 6.79987 18.7302C6.64929 18.9384 6.4923 19.1403 6.33211 19.3517C6.39939 19.4062 6.46346 19.3581 6.52113 19.3453C8.64207 18.8551 10.7598 18.8615 12.8776 19.3838C13.1178 19.4446 13.3517 19.5215 13.6208 19.7138C13.3037 19.749 13.057 19.8227 12.7975 19.8035C10.904 19.6625 9.00731 19.7074 7.11064 19.6849C6.8319 19.6817 6.54997 19.6753 6.27123 19.6625C6.16551 19.6593 6.07259 19.6753 6.01493 19.7682C5.85794 20.0181 5.64328 20.2232 5.48949 20.5211C5.78745 20.4282 6.05337 20.3353 6.3257 20.2584C8.18072 19.7266 10.0582 19.6401 11.958 19.9701C12.1343 20.0021 12.3041 20.079 12.4739 20.1367C12.5059 20.1495 12.5508 20.1751 12.554 20.204C12.5636 20.2648 12.5027 20.2712 12.4611 20.2808C12.256 20.3289 12.051 20.3866 11.8363 20.3962C11.2788 20.4186 10.7182 20.4282 10.1607 20.4699C9.00731 20.5596 7.85713 20.6717 6.70695 20.771C6.26162 20.8095 5.81949 20.8447 5.37416 20.88C5.30688 20.8864 5.23319 20.88 5.17872 20.928C5.10824 20.9921 4.9929 21.0658 5.02814 21.1619C5.06018 21.2548 5.17552 21.1811 5.24921 21.1747C6.3257 21.0754 7.39898 20.9344 8.48188 20.944C9.48789 20.9504 10.4907 21.0113 11.4903 21.101C11.5576 21.1074 11.6729 21.0818 11.6761 21.1811C11.6793 21.2676 11.5672 21.274 11.4999 21.2901C11.1379 21.3637 10.7694 21.4118 10.401 21.447C10.3209 21.4535 10.2344 21.4342 10.1511 21.5015C10.212 21.588 10.3081 21.5816 10.3882 21.5944C10.7406 21.6553 11.0866 21.729 11.3974 21.9116C11.4518 21.9436 11.5512 21.9468 11.5319 22.0333C11.5159 22.107 11.423 22.1006 11.3589 22.1166C10.8623 22.2512 10.3529 22.2031 9.84992 22.1999C9.12585 22.1967 8.40179 22.1935 7.67772 22.28C8.17111 22.3185 8.6645 22.3633 9.14508 22.4723C9.61604 22.578 10.1062 22.6132 10.6028 22.8471C10.3049 22.9785 10.0389 22.9785 9.77944 22.9785C8.4178 22.9689 7.05938 23.0618 5.70095 23.1355C5.04416 23.1707 4.38737 23.1867 3.73059 23.2092C3.51273 23.2156 3.37176 23.3437 3.27564 23.6577C4.20155 23.4975 5.11144 23.3181 6.03735 23.27C6.95685 23.222 7.87636 23.2572 8.83431 23.3597C8.73178 23.4847 8.61324 23.4815 8.51392 23.5167C7.95325 23.7122 7.42141 23.9653 6.8255 24.0742C5.60483 24.3017 4.37776 24.3337 3.14428 24.3017C2.92963 24.2953 2.69575 24.2632 2.61565 24.5868C2.80147 24.5484 2.96487 24.5035 3.13147 24.4811C4.07981 24.3401 5.01533 24.3946 5.92842 24.7086C6.07259 24.7598 6.20395 24.8303 6.33211 24.9104C6.42822 24.9713 6.40259 25.0161 6.30647 25.0385C6.15269 25.0802 5.9925 25.0866 5.83231 25.0674C4.72698 24.9424 3.61204 24.9873 2.50352 24.9168C2.36895 24.9072 2.29206 24.9777 2.22799 25.077C1.61926 25.9965 1.01373 26.916 0.405 27.8387C0.344127 27.9284 0.302477 28.0662 0.151896 27.9637C0.0237427 27.8772 -0.0595573 27.7778 0.0525771 27.608C0.520338 26.9128 0.981691 26.2112 1.44625 25.5159C1.59683 25.2884 1.75382 25.0674 1.9076 24.8431C1.97488 24.747 1.99731 24.6445 1.97809 24.5227C1.74421 23.1739 1.60644 21.8123 1.31809 20.4731C1.28285 20.3065 1.30528 20.1463 1.3245 19.922C1.74741 20.441 1.83391 21.0466 2.04857 21.6136C2.09342 21.5143 2.06459 21.431 2.05818 21.3509C1.97809 20.3161 1.96527 19.2812 2.06459 18.2496C2.0774 18.1279 2.05498 17.9292 2.18954 17.9228C2.30167 17.9164 2.27925 18.1183 2.29847 18.2272C2.33051 18.397 2.34973 18.57 2.39138 18.7398C2.41701 18.0285 2.42983 17.3205 2.59002 16.6157C2.70536 16.9424 2.76303 17.2821 2.83671 17.6217C2.8207 16.6477 2.71177 15.6737 2.86555 14.6998C3.17953 15.9172 3.36855 17.1539 3.50632 18.3938C3.64729 19.6433 3.66971 20.9056 3.72738 22.2288C3.94845 21.9372 4.13747 21.745 4.09582 21.3862C3.93563 20.0438 3.87796 18.6885 3.76903 17.3429C3.70175 16.4843 3.60884 15.6289 3.52874 14.7702C3.50311 14.5075 3.50311 14.248 3.5736 13.9821C4.00612 15.0522 4.3233 16.1543 4.46427 17.3045C4.52834 15.8371 4.21757 14.3794 4.36815 12.9088C4.80708 13.6137 4.84873 14.4306 5.03455 15.2028C5.03135 14.1711 4.70455 13.1555 4.89999 12.1078C5.05377 12.2744 5.16911 12.4667 5.23639 12.6749C5.5792 13.7194 5.83231 14.7799 5.88677 15.8852C5.94444 17.0802 5.98929 18.272 5.75541 19.4639C6.05017 19.2941 6.31609 18.8135 6.28725 18.5027C6.13667 16.9617 6.08861 15.411 5.96046 13.8668C5.89638 13.0978 5.80667 12.3321 5.73619 11.5664C5.71376 11.3101 5.7426 11.057 5.79706 10.7943C5.94124 10.9481 6.03735 11.1307 6.09182 11.3261C6.48589 12.6813 6.71977 14.0622 6.73899 15.4783C6.75181 16.4394 6.76462 17.3942 6.61725 18.3617C6.97928 18.099 7.13627 17.7722 7.0818 17.3686C6.86715 15.7666 6.76142 14.1519 6.55958 12.5468C6.48269 11.9477 6.39618 11.3485 6.32249 10.7494C6.29366 10.5284 6.30007 10.3041 6.35133 10.0446C6.51152 10.2272 6.59802 10.413 6.6621 10.602C6.98889 11.5728 7.242 12.5596 7.3317 13.5816C7.44063 14.8247 7.54956 16.0678 7.37976 17.3141C7.37656 17.3333 7.38937 17.3557 7.39578 17.391C7.61364 17.1443 7.82509 16.9136 8.02373 16.6733C8.09742 16.5836 8.05898 16.4683 8.04296 16.3658C7.80587 14.8952 7.62005 13.4182 7.33811 11.9573C7.15229 10.9897 7.07219 10.0125 7.08821 9.02575C7.08821 8.97449 7.09462 8.92003 7.10423 8.86876C7.10743 8.84954 7.12666 8.83352 7.1587 8.78867C7.29966 9.02896 7.44384 9.24362 7.53355 9.49351C8.29926 11.6337 8.53635 13.8411 8.35373 16.0998C8.35053 16.1287 8.35373 16.1575 8.35693 16.2472C8.61644 15.93 8.90799 15.7474 8.8311 15.2668C8.57479 13.6938 8.37616 12.1111 8.12305 10.538C7.97888 9.64089 7.93403 8.7342 7.94364 7.82752C7.94364 7.79868 7.95645 7.77305 7.96927 7.71218C8.25121 8.08062 8.34412 8.50032 8.4947 8.8944C8.44664 8.45867 8.28965 8.03577 8.36014 7.58723C9.69614 9.62808 10.0197 11.9124 9.98769 14.3217C10.1831 14.0974 10.3689 13.8988 10.542 13.6873C10.5964 13.6233 10.5612 13.54 10.5387 13.4695C9.9973 11.6113 9.60323 9.71458 9.00731 7.87237C8.9144 7.58403 8.87916 7.28927 8.85994 6.92403C9.05217 7.10345 9.1675 7.27646 9.26042 7.45907C9.67692 8.30169 10.0357 9.16352 10.2568 10.0798C10.5131 11.1307 10.747 12.1847 10.7822 13.274C10.7822 13.2965 10.7951 13.3157 10.8015 13.3381C11.0578 13.21 11.1475 13.0562 11.0898 12.8351C10.6188 11.0442 10.3017 9.21478 9.80507 7.43024C9.69614 7.04578 9.59361 6.65811 9.57439 6.25443C9.57119 6.21919 9.5776 6.18074 9.5808 6.1423C9.68012 6.13269 9.69614 6.21278 9.73458 6.26084C10.0806 6.74142 10.26 7.29888 10.4554 7.84354C10.9552 9.24682 11.2148 10.7046 11.2949 12.1911C11.3045 12.3866 11.2981 12.582 11.2981 12.8383C11.4967 12.6141 11.6633 12.4314 11.8235 12.2392C11.8748 12.1751 11.8363 12.0918 11.8171 12.0213C11.407 10.5187 11.1379 8.9841 10.7438 7.47509C10.606 6.94005 10.4619 6.40822 10.3145 5.87638C10.2568 5.67133 10.2344 5.45988 10.2248 5.24843C10.2216 5.19396 10.1895 5.11386 10.2632 5.09144C10.3177 5.07542 10.3529 5.13949 10.385 5.17794C10.5708 5.38939 10.7021 5.63609 10.8271 5.88599C11.4807 7.17714 11.7915 8.56761 11.9965 9.98691C12.083 10.5796 12.115 11.1755 12.0798 11.7714C12.0766 11.8067 12.0862 11.8419 12.0958 11.8964C12.288 11.8227 12.3649 11.7106 12.3393 11.5119C12.0381 9.38138 11.9132 7.22519 11.5736 5.09784C11.5351 4.85115 11.5095 4.59164 11.6473 4.33213C11.7178 4.20077 11.6537 3.99572 11.6473 3.75223C11.8459 3.98932 11.9677 4.19757 12.0574 4.42183C12.4226 5.36056 12.7366 6.3121 12.8968 7.3117C13.0794 8.44586 13.2332 9.58322 13.1595 10.743C13.4542 10.6277 13.5472 10.4771 13.4991 10.1952C13.2588 8.77265 13.1178 7.33413 12.9288 5.90521C12.8199 5.07221 12.6469 4.24883 12.5828 3.41262C12.5892 3.33894 12.5572 3.24602 12.6533 3.12107ZM12.051 16.9136C10.9937 16.7054 9.93643 16.4971 8.87916 16.2889C8.81829 16.276 8.751 16.2664 8.70935 16.3177C8.46907 16.6092 8.23519 16.904 7.95645 17.2468C9.36614 17.061 10.7086 16.9873 12.051 16.9136ZM9.13226 15.2508C9.15149 15.2572 9.17391 15.2604 9.19314 15.2668C9.30847 15.1387 9.4142 15.0009 9.53915 14.8824C9.68973 14.7382 9.70895 14.5876 9.65769 14.3922C9.51352 13.8379 9.40779 13.274 9.30527 12.7102C9.22838 12.2809 9.14187 11.8483 9.05857 11.419C9.13226 12.6974 9.26362 13.9693 9.13226 15.2508ZM14.2071 10.0414C15.4983 10.0318 16.7478 10.0542 17.9973 10.1407C17.9653 10.1087 17.9332 10.0958 17.898 10.0926C16.8279 9.96448 15.7546 9.83953 14.6845 9.70497C14.4378 9.67293 14.3449 9.83953 14.2071 10.0414ZM3.16671 20.1303C3.14749 20.1335 3.12826 20.1335 3.10904 20.1367C3.1539 21.0946 3.13788 22.0526 3.14108 23.065C3.41661 22.7446 3.61204 22.4819 3.50311 22.0718C3.38778 21.6457 3.34292 21.1971 3.26923 20.7614C3.23079 20.5532 3.19875 20.3417 3.16671 20.1303ZM14.0534 12.3898C13.5247 12.2937 12.9993 12.1976 12.4707 12.0982C12.4034 12.0854 12.3297 12.0726 12.2784 12.1271C12.1375 12.2712 11.9901 12.409 11.8651 12.6301C12.6212 12.55 13.3389 12.4731 14.0534 12.3898ZM14.6781 9.51274C15.6777 9.35895 16.6549 9.36856 17.6321 9.3974C17.5391 9.36536 17.4462 9.35575 17.3533 9.34614C16.6933 9.28206 16.0269 9.24041 15.3701 9.1507C15.0466 9.10585 14.8575 9.2308 14.6781 9.51274ZM5.21717 17.8652C5.19474 18.759 5.13066 19.6401 4.99931 20.5243C5.12105 20.3097 5.39658 20.1783 5.38377 19.9124C5.34532 19.2268 5.27484 18.5476 5.21717 17.8652ZM6.19754 21.5175C5.76503 21.4951 5.33251 21.4695 4.89999 21.447C4.85513 21.4438 4.80067 21.4406 4.77504 21.4791C4.65009 21.6681 4.46747 21.8187 4.38097 22.0718C4.98649 21.8219 5.58561 21.6617 6.19754 21.5175ZM2.59322 23.8019C2.83671 23.5712 2.97448 23.3693 2.904 23.0554C2.8207 22.6965 2.78225 22.3281 2.72458 21.9661C2.70536 21.8379 2.70856 21.7034 2.63167 21.5207C2.61565 22.3089 2.60604 23.0297 2.59322 23.8019ZM15.415 10.4739C15.415 10.4579 15.415 10.4451 15.415 10.429C15.053 10.3746 14.6877 10.3233 14.3257 10.2656C13.954 10.2048 13.8131 10.2817 13.6465 10.6469C14.2392 10.5892 14.8287 10.5316 15.415 10.4739ZM3.82029 22.8631C4.50592 22.6293 5.18513 22.4947 5.87075 22.373C5.43183 22.3665 4.9961 22.4114 4.56358 22.389C4.19835 22.3698 3.95486 22.4723 3.82029 22.8631ZM17.2156 6.69656C17.4302 6.57802 17.5423 6.44987 17.5616 6.24802C17.584 6.02376 17.6192 5.79949 17.6481 5.57201C17.7154 5.0594 17.7858 4.54678 17.8563 4.03417C17.6417 4.90561 17.443 5.77706 17.2156 6.69656ZM12.7045 9.68895C12.6917 10.272 12.6469 10.8519 12.5732 11.4607C12.9096 11.1627 12.9897 11.0666 12.9609 10.9192C12.8808 10.5091 12.791 10.099 12.7045 9.68895ZM4.45465 21.21C4.58281 21.1042 4.67252 21.0305 4.66611 20.9088C4.64048 20.4314 4.60524 19.9573 4.5732 19.4831C4.56359 20.0438 4.51232 20.6044 4.45465 21.21Z" fill="#CA9D75"/>
</svg>
