<svg width="130" height="52" viewBox="0 0 130 52" fill="none" xmlns="http://www.w3.org/2000/svg">
<path d="M57 4.59375C57 8.05208 53.1875 13.1042 45.5625 19.75C46.2083 21.7292 47.3542 23.0208 49 23.625C49.4583 23.7917 49.8958 23.875 50.3125 23.875C50.75 23.875 51.0833 23.8333 51.3125 23.75C51.6875 23.6042 51.9792 23.5312 52.1875 23.5312C52.3958 23.5312 52.5 23.6146 52.5 23.7812C52.5 23.9479 52.3542 24.1042 52.0625 24.25C51.5417 24.4792 50.7812 24.5938 49.7812 24.5938C48.8021 24.5938 47.8125 24.2292 46.8125 23.5C45.8125 22.7708 45.0521 21.8125 44.5312 20.625C35.7812 28.1458 21.9167 38 2.9375 50.1875C1.70833 50.9583 0.927083 51.3438 0.59375 51.3438C0.239583 51.3438 0.0625 51.25 0.0625 51.0625C0.0625 50.875 0.177083 50.7292 0.40625 50.625C0.614583 50.5208 0.822917 50.4271 1.03125 50.3438C1.21875 50.2604 1.55208 50.0521 2.03125 49.7188C2.51042 49.3854 3.19792 48.7083 4.09375 47.6875C4.98958 46.6667 5.95833 45.4167 7 43.9375C8.04167 42.4583 9.17708 40.75 10.4062 38.8125C14.4271 32.4375 16.8646 28.5938 17.7188 27.2812L20.5625 23.25C22.5625 20.5208 24.4479 18.1771 26.2188 16.2188C22.1562 19.1146 18.8438 20.5625 16.2812 20.5625C14.7188 20.5625 13.625 20.0104 13 18.9062C12.4167 17.8438 12.5417 16.625 13.375 15.25C13.8542 14.4375 14.4271 13.6875 15.0938 13L16.6562 11.3125C18.1354 9.70833 18.8542 8.63542 18.8125 8.09375C18.7917 7.53125 18.6771 7.125 18.4688 6.875C18.2604 6.60417 17.9792 6.39583 17.625 6.25C16.9792 5.9375 15.9792 5.78125 14.625 5.78125C12.0417 5.78125 9.4375 6.86458 6.8125 9.03125C6.4375 9.36458 6.15625 9.53125 5.96875 9.53125C5.78125 9.53125 5.6875 9.42708 5.6875 9.21875C5.66667 8.90625 5.91667 8.55208 6.4375 8.15625C6.97917 7.73958 7.59375 7.34375 8.28125 6.96875C8.96875 6.59375 9.6875 6.27083 10.4375 6C12.0833 5.41667 13.4896 5.125 14.6562 5.125C15.8229 5.125 16.75 5.19792 17.4375 5.34375C18.1458 5.48958 18.75 5.70833 19.25 6C21.6875 7.4375 21.5521 10 18.8438 13.6875C18.4062 14.2708 17.9375 14.8125 17.4375 15.3125L16.2188 16.5938C15.3021 17.5729 14.8438 18.2604 14.8438 18.6562C14.8438 19.3854 15.25 19.75 16.0625 19.75C16.8958 19.75 17.7812 19.625 18.7188 19.375C19.6771 19.1042 20.8125 18.625 22.125 17.9375C25.0417 16.3542 28.4583 13.7396 32.375 10.0938L33.1875 9.375C34.6042 8.1875 35.4792 7.59375 35.8125 7.59375C36.1667 7.59375 36.3438 7.69792 36.3438 7.90625C36.3646 8.07292 36.2917 8.19792 36.125 8.28125C35.9583 8.36458 35.7708 8.47917 35.5625 8.625C34.2083 9.5 33.2396 10.3438 32.6562 11.1562C32.0938 11.9688 31.6458 12.6667 31.3125 13.25C24.3958 26.0208 17.5938 35.8333 10.9062 42.6875L6.6875 46.8125L12.0625 43.125L18.1875 38.6875L24.7812 33.75L31.4688 28.5625C37.4688 23.6875 41.6146 20.2292 43.9062 18.1875C43.8854 18.0417 43.875 17.9062 43.875 17.7812V17.375C43.875 13.7292 45.0729 10.25 47.4688 6.9375C48.9062 4.9375 50.4792 3.52083 52.1875 2.6875C53.0208 2.27083 53.8021 2.0625 54.5312 2.0625C56.1771 2.0625 57 2.90625 57 4.59375ZM45.125 17.0938L49.5 13C53.7708 8.77083 55.9062 5.84375 55.9062 4.21875C55.9062 3.78125 55.75 3.44792 55.4375 3.21875C55.1458 2.96875 54.875 2.84375 54.625 2.84375C53.5625 2.84375 52.4688 3.22917 51.3438 4C50.2188 4.77083 49.1979 5.80208 48.2812 7.09375C46.1771 10.0521 45.125 13.2708 45.125 16.75V17.0938ZM55.2812 21.75C54.9896 22.0208 54.6562 22.2396 54.2812 22.4062C53.9062 22.5521 53.4792 22.625 53 22.625C52.5208 22.625 52.1042 22.4479 51.75 22.0938C51.4167 21.7188 51.25 21.3021 51.25 20.8438C51.25 20.3854 51.3333 19.9792 51.5 19.625C51.6667 19.2708 51.8958 18.9583 52.1875 18.6875C52.7917 18.0625 53.4479 17.75 54.1562 17.75C54.8854 17.75 55.4167 17.9479 55.75 18.3438C56.1042 18.7188 56.2812 19.1354 56.2812 19.5938C56.2812 20.0521 56.1875 20.4583 56 20.8125C55.8333 21.1667 55.5938 21.4792 55.2812 21.75ZM35.4375 48.2188C35.4375 48.8646 36.0521 49.1875 37.2812 49.1875C38.5104 49.1875 39.6667 48.9062 40.75 48.3438C41.8542 47.7812 42.9583 47.0833 44.0625 46.25C45.1875 45.3958 46.2708 44.4688 47.3125 43.4688L50.125 40.6562C50.9583 39.7812 51.6458 39.0312 52.1875 38.4062C52.7292 37.7604 53.0521 37.3854 53.1562 37.2812L53.7812 37.8438C53.5729 38.0521 53.1771 38.5 52.5938 39.1875C52.0312 39.8542 51.3229 40.6458 50.4688 41.5625C49.6146 42.4583 48.6562 43.4062 47.5938 44.4062C46.5312 45.4062 45.4167 46.3229 44.25 47.1562C41.5625 49.0938 39.2083 50.0625 37.1875 50.0625C35.8958 50.0625 34.8646 49.8333 34.0938 49.375C33.3229 48.8958 32.9375 48.3542 32.9375 47.75C32.9375 47.1458 33 46.6042 33.125 46.125C33.25 45.6458 33.4792 45.0729 33.8125 44.4062C34.1458 43.7396 34.6146 42.9583 35.2188 42.0625C35.8021 41.1667 36.5729 40.0938 37.5312 38.8438C38.4688 37.5938 39.6146 36.1458 40.9688 34.5L45.7812 28.8125C46.0312 28.875 46.5417 28.9062 47.3125 28.9062H48.7812C49.3229 28.9062 49.7604 28.8854 50.0938 28.8438C43.1979 37.0729 39.3229 41.7604 38.4688 42.9062C37.5938 44.0312 36.9479 44.9167 36.5312 45.5625C35.8021 46.6667 35.4375 47.5521 35.4375 48.2188ZM49.9062 48.1562C49.9062 48.8438 50.4062 49.1875 51.4062 49.1875C52.4062 49.1875 53.4688 48.9271 54.5938 48.4062C55.7396 47.8646 56.8646 47.1875 57.9688 46.375C59.0938 45.5625 60.1771 44.6771 61.2188 43.7188C62.2604 42.7396 63.2083 41.8125 64.0625 40.9375L66.2188 38.625C66.8021 37.9583 67.1979 37.5208 67.4062 37.3125L68.0312 37.8438C67.8021 38.0729 67.375 38.5312 66.75 39.2188C66.1458 39.9062 65.3958 40.6979 64.5 41.5938C63.625 42.4896 62.6354 43.4375 61.5312 44.4375C60.4479 45.4375 59.3125 46.3542 58.125 47.1875C55.3542 49.1042 52.9271 50.0625 50.8438 50.0625C49.9688 50.0625 49.25 49.8229 48.6875 49.3438C48.1042 48.8646 47.8125 48.3542 47.8125 47.8125C47.8125 47.25 47.8438 46.8021 47.9062 46.4688C47.9479 46.1354 48.0521 45.7604 48.2188 45.3438C48.3854 44.9062 48.625 44.4062 48.9375 43.8438C49.25 43.2604 49.6667 42.5625 50.1875 41.75L54.9688 34.6875L79.125 0.15625C80.625 0.364583 82.0729 0.364583 83.4688 0.15625C63.5938 27.7812 53.3021 42.125 52.5938 43.1875C51.8854 44.2292 51.3646 45.0208 51.0312 45.5625C50.6979 46.0833 50.4479 46.5104 50.2812 46.8438C50.0312 47.3438 49.9062 47.7812 49.9062 48.1562ZM64.1562 48.1562C64.1562 48.8438 64.6562 49.1875 65.6562 49.1875C66.6562 49.1875 67.7188 48.9271 68.8438 48.4062C69.9896 47.8646 71.1146 47.1875 72.2188 46.375C73.3438 45.5625 74.4271 44.6771 75.4688 43.7188C76.5104 42.7396 77.4583 41.8125 78.3125 40.9375L80.4688 38.625C81.0521 37.9583 81.4479 37.5208 81.6562 37.3125L82.2812 37.8438C82.0521 38.0729 81.625 38.5312 81 39.2188C80.3958 39.9062 79.6458 40.6979 78.75 41.5938C77.875 42.4896 76.8854 43.4375 75.7812 44.4375C74.6979 45.4375 73.5625 46.3542 72.375 47.1875C69.6042 49.1042 67.1771 50.0625 65.0938 50.0625C64.2188 50.0625 63.5 49.8229 62.9375 49.3438C62.3542 48.8646 62.0625 48.3542 62.0625 47.8125C62.0625 47.25 62.0938 46.8021 62.1562 46.4688C62.1979 46.1354 62.3021 45.7604 62.4688 45.3438C62.6354 44.9062 62.875 44.4062 63.1875 43.8438C63.5 43.2604 63.9167 42.5625 64.4375 41.75L69.2188 34.6875L93.375 0.15625C94.875 0.364583 96.3229 0.364583 97.7188 0.15625C77.8438 27.7812 67.5521 42.125 66.8438 43.1875C66.1354 44.2292 65.6146 45.0208 65.2812 45.5625C64.9479 46.0833 64.6979 46.5104 64.5312 46.8438C64.2812 47.3438 64.1562 47.7812 64.1562 48.1562ZM93.9062 50.0625C91.8229 50.0625 90.7812 49.4167 90.7812 48.125C90.7812 47.0625 91.3854 45.7292 92.5938 44.125L94.5625 41.625L94.25 41.5C90.75 45.8125 87.4479 48.5208 84.3438 49.625C83.4896 49.9167 82.75 50.0625 82.125 50.0625C79.5625 50.0625 78.2812 48.6979 78.2812 45.9688C78.2812 42.7604 79.5625 39.6979 82.125 36.7812C85.9167 32.3646 89.7292 29.75 93.5625 28.9375C94.7083 28.7083 95.6875 28.5938 96.5 28.5938C97.3125 28.5938 97.9479 28.6562 98.4062 28.7812C98.8854 28.8854 99.3021 29.0417 99.6562 29.25C100.406 29.7292 100.781 30.3229 100.781 31.0312C100.781 31.7188 100.656 32.375 100.406 33L103.469 29.2188C104.031 29.3854 104.552 29.4688 105.031 29.4688C106.26 29.4688 107.146 29.4271 107.688 29.3438L97.1562 42.0312C94.6562 44.9479 93.4062 47 93.4062 48.1875C93.4062 48.8542 93.8021 49.1875 94.5938 49.1875C95.3854 49.1875 96.2917 48.9479 97.3125 48.4688C98.3542 47.9896 99.3854 47.375 100.406 46.625C101.427 45.875 102.417 45.0417 103.375 44.125C104.354 43.2083 105.25 42.3125 106.062 41.4375C106.896 40.5625 107.625 39.75 108.25 39L109.75 37.3125L110.406 37.8438L108.812 39.6562C102.812 46.5938 97.8438 50.0625 93.9062 50.0625ZM85.25 38.8125C82.3125 42.375 80.8438 45.2917 80.8438 47.5625C80.8438 48.6042 81.3125 49.125 82.25 49.125C85.2917 49.125 89.6771 45.7604 95.4062 39.0312L98.0312 35.875C99.2812 33.9792 99.9062 32.6042 99.9062 31.75C99.9062 30.2917 99.1771 29.5625 97.7188 29.5625C95.7396 29.5625 92.8958 31.25 89.1875 34.625C87.9167 35.7917 86.6042 37.1875 85.25 38.8125ZM119.188 44.25C119.438 44.2917 119.75 44.3125 120.125 44.3125C120.521 44.3125 120.99 44.1667 121.531 43.875C122.073 43.5833 122.625 43.2083 123.188 42.75C123.771 42.2917 124.344 41.7917 124.906 41.25C125.469 40.6875 125.979 40.1562 126.438 39.6562C126.917 39.1354 127.333 38.6667 127.688 38.25L128.406 37.3125L129.094 37.8438C128.844 38.0938 128.521 38.4375 128.125 38.875L126.812 40.375C123.917 43.5 121.625 45.0625 119.938 45.0625H119.406C119.24 45.0625 119.073 45.0417 118.906 45C117.156 48.8125 113.438 50.7188 107.75 50.7188C105.271 50.7188 103.469 50.125 102.344 48.9375C101.865 48.4167 101.625 47.75 101.625 46.9375C101.625 46.125 101.823 45.4375 102.219 44.875C102.594 44.2917 103.042 43.8125 103.562 43.4375C104.625 42.6667 105.583 42.2812 106.438 42.2812C107.271 42.2812 107.688 42.6771 107.688 43.4688C107.625 44.0104 107.167 44.4167 106.312 44.6875C106.042 44.7708 105.781 44.8125 105.531 44.8125C105.26 44.8125 105.01 44.7292 104.781 44.5625C104.531 44.375 104.333 44.2396 104.188 44.1562C104.062 44.2812 103.906 44.4271 103.719 44.5938C103.51 44.7604 103.312 44.9583 103.125 45.1875C102.667 45.75 102.438 46.3333 102.438 46.9375C102.438 47.5208 102.635 47.9896 103.031 48.3438C103.427 48.6979 103.896 48.9688 104.438 49.1562C105.25 49.4479 106.104 49.5938 107 49.5938C107.875 49.5938 108.781 49.4062 109.719 49.0312C110.677 48.6562 111.615 48.0312 112.531 47.1562C115.052 44.7604 116.417 41.2083 116.625 36.5C116.75 33.3333 117.135 30.8542 117.781 29.0625C117.802 29 117.812 28.9062 117.812 28.7812L110.438 37.8438C110.021 38.3438 109.719 38.6667 109.531 38.8125C109.323 38.9583 109.219 39.0312 109.219 39.0312C108.969 39.0521 108.802 38.9896 108.719 38.8438C108.677 38.7396 108.771 38.5417 109 38.25C114.375 31.8333 117.396 28.1875 118.062 27.3125C118.396 25.6875 118.938 24.875 119.688 24.875C120.042 24.875 120.333 24.9688 120.562 25.1562C120.812 25.3438 120.938 25.5833 120.938 25.875C120.917 26.2708 120.594 26.8333 119.969 27.5625C119.365 28.2708 118.99 28.7292 118.844 28.9375C118.719 29.125 118.635 29.2917 118.594 29.4375C118.552 29.5625 118.531 29.6875 118.531 29.8125V30.1875C118.51 30.75 118.562 31.4167 118.688 32.1875L119.469 37.375C119.927 40.2083 119.833 42.5 119.188 44.25Z" fill="#CA9D75"/>
</svg>
