<?xml version="1.0" encoding="UTF-8" standalone="no"?>
<!-- Created with Inkscape (http://www.inkscape.org/) -->

<svg
   width="210mm"
   height="297mm"
   viewBox="0 0 210 297"
   version="1.1"
   id="svg1"
   xml:space="preserve"
   inkscape:version="1.3 (0e150ed6c4, 2023-07-21)"
   sodipodi:docname="рисунок.svg"
   xmlns:inkscape="http://www.inkscape.org/namespaces/inkscape"
   xmlns:sodipodi="http://sodipodi.sourceforge.net/DTD/sodipodi-0.dtd"
   xmlns="http://www.w3.org/2000/svg"
   xmlns:svg="http://www.w3.org/2000/svg"><sodipodi:namedview
     id="namedview1"
     pagecolor="#ffffff"
     bordercolor="#000000"
     borderopacity="0.25"
     inkscape:showpageshadow="2"
     inkscape:pageopacity="0.0"
     inkscape:pagecheckerboard="0"
     inkscape:deskcolor="#d1d1d1"
     inkscape:document-units="mm"
     inkscape:zoom="1.9830139"
     inkscape:cx="311.64683"
     inkscape:cy="155.82341"
     inkscape:window-width="1920"
     inkscape:window-height="1001"
     inkscape:window-x="-9"
     inkscape:window-y="-9"
     inkscape:window-maximized="1"
     inkscape:current-layer="g1" /><defs
     id="defs1"><clipPath
       clipPathUnits="userSpaceOnUse"
       id="clipPath52"><path
         id="path52"
         style="stroke-width:0.1;stroke-linecap:square;paint-order:markers fill stroke;stop-color:#000000"
         d="m -880.82767,-187.29769 h 1640.84 v 73.28155 h -1640.84 z" /></clipPath><style
       id="style4"><![CDATA[
.class1 { 
    fill:none;
    fill-opacity:1;
    stroke:#000000;
    stroke-dasharray:1000 5000;
    stroke-dashoffset:1000;
    stroke-opacity:1;
    stroke-width:0.264583;
    transition:7s linear;
}
]]></style>
<clipPath
       clipPathUnits="userSpaceOnUse"
       id="clipPath5"><path
         d="m 95.793573,13.485463 c 0,2.859431 -3.152246,7.036593 -9.456738,12.53154 0.53393,1.636395 1.481403,2.704386 2.842155,3.203919 0.378883,0.137821 0.740568,0.206719 1.08532,0.206719 0.361686,0 0.637117,-0.03445 0.826823,-0.103346 0.309827,-0.120597 0.551127,-0.180869 0.723371,-0.180869 0.172244,0 0.258234,0.0689 0.258234,0.206692 0,0.137795 -0.120386,0.266991 -0.361686,0.387562 -0.430477,0.189494 -1.059392,0.284242 -1.886214,0.284242 -0.809361,0 -1.627717,-0.301467 -2.45454,-0.904346 -0.826823,-0.60288 -1.455473,-1.395254 -1.886215,-2.377123 -7.234766,6.218397 -18.69821,14.366055 -34.390623,24.442976 -1.016305,0.637381 -1.662258,0.95594 -1.937867,0.95594 -0.292833,0 -0.439251,-0.07752 -0.439251,-0.232569 0,-0.155046 0.09474,-0.275431 0.284221,-0.361686 0.172254,-0.08599 0.344509,-0.163512 0.516766,-0.232568 0.155027,-0.06879 0.430636,-0.241036 0.826823,-0.516732 0.396184,-0.275695 0.964628,-0.835289 1.705329,-1.679575 0.740675,-0.844021 1.541674,-1.877483 2.402946,-3.100387 0.861272,-1.223169 1.800066,-2.635515 2.816357,-4.237567 3.324516,-5.271029 5.339901,-8.449072 6.046153,-9.534287 l 2.351273,-3.333141 c 1.653645,-2.256526 3.212544,-4.194387 4.676722,-5.813584 -3.358965,2.394346 -6.097826,3.591507 -8.216556,3.591507 -1.291908,0 -2.196254,-0.45646 -2.713011,-1.369431 -0.482309,-0.878496 -0.378963,-1.886188 0.310065,-3.023076 0.396187,-0.671777 0.86987,-1.291908 1.421103,-1.860338 l 1.291908,-1.395254 c 1.22301,-1.326383 1.81729,-2.213478 1.782842,-2.661338 -0.01723,-0.465085 -0.111972,-0.801 -0.284242,-1.007692 -0.172244,-0.223944 -0.404786,-0.396187 -0.697627,-0.516784 -0.533982,-0.258366 -1.360805,-0.387562 -2.480469,-0.387562 -2.135955,0 -4.289134,0.89572 -6.459537,2.687188 -0.310066,0.27559 -0.542608,0.413411 -0.697654,0.413411 -0.155019,0 -0.232542,-0.08615 -0.232542,-0.258392 -0.01722,-0.258392 0.189495,-0.551206 0.62013,-0.878496 0.447861,-0.344514 0.956019,-0.671804 1.52445,-0.981869 0.568431,-0.310038 1.162712,-0.57703 1.782842,-0.800973 1.360805,-0.482309 2.523517,-0.723476 3.488161,-0.723476 0.964618,0 1.731169,0.0603 2.2996,0.180869 0.585655,0.12057 1.085215,0.301439 1.4986,0.542607 2.015384,1.188561 1.903439,3.307292 -0.335889,6.356191 -0.361738,0.482336 -0.7493,0.930196 -1.162711,1.343608 l -1.007693,1.059365 c -0.757925,0.809598 -1.136888,1.378029 -1.136888,1.705319 0,0.602879 0.335889,0.904346 1.007692,0.904346 0.689028,0 1.421104,-0.103373 2.196254,-0.310066 0.792374,-0.223943 1.731169,-0.62013 2.816357,-1.188561 2.411571,-1.309132 5.236554,-3.470936 8.474975,-6.485387 l 0.671777,-0.594281 c 1.17131,-0.981869 1.894681,-1.472777 2.170377,-1.472777 0.292894,0 0.439208,0.08612 0.439208,0.258366 0.0172,0.137822 -0.04313,0.241168 -0.18071,0.310065 -0.137848,0.0689 -0.292894,0.163645 -0.465138,0.284216 -1.119716,0.723476 -1.92061,1.421103 -2.402946,2.092907 -0.465137,0.671777 -0.835501,1.248833 -1.111091,1.731142 -5.718863,10.55923 -11.342978,18.672387 -16.872373,24.339498 l -3.488161,3.410743 4.44418,-3.048793 5.064284,-3.669242 5.451871,-4.082256 5.529369,-4.289214 c 4.96099,-4.030768 8.388932,-6.8902 10.283613,-8.578294 -0.0172,-0.120571 -0.02593,-0.232543 -0.02593,-0.335889 v -0.335889 c 0,-3.014477 0.9906,-5.891133 2.971535,-8.629967 1.188509,-1.653646 2.488936,-2.824982 3.901546,-3.514 0.688975,-0.344511 1.335088,-0.516765 1.937809,-0.516765 1.360752,0 2.04126,0.697632 2.041261,2.092904 z m -9.818423,10.335286 3.617383,-3.384814 c 3.53113,-3.49676 5.296694,-5.916957 5.296694,-7.260537 0,-0.361739 -0.129117,-0.637355 -0.387614,-0.826826 -0.241036,-0.206706 -0.465138,-0.310057 -0.671778,-0.310057 -0.878416,0 -1.782762,0.318672 -2.713037,0.956014 -0.93001,0.637354 -1.774296,1.49 -2.532063,2.557991 -1.7399,2.44602 -2.609585,5.107358 -2.609585,7.984014 z m 8.397346,3.8499 c -0.2413,0.223917 -0.516731,0.404786 -0.826823,0.542581 -0.310092,0.120597 -0.66331,0.180869 -1.059392,0.180869 -0.396081,0 -0.740568,-0.14642 -1.033462,-0.439235 -0.275696,-0.310065 -0.413544,-0.654579 -0.413544,-1.033542 0,-0.378962 0.06906,-0.714851 0.206904,-1.007692 0.137584,-0.292815 0.327025,-0.551207 0.568325,-0.77515 0.499534,-0.516758 1.042194,-0.775123 1.627717,-0.775123 0.602985,0 1.042194,0.163618 1.317889,0.490908 0.292894,0.310065 0.439209,0.654579 0.439209,1.033541 0,0.378963 -0.07752,0.714852 -0.232569,1.007693 -0.137848,0.292814 -0.336021,0.551207 -0.594254,0.77515 z M 77.965154,49.555712 c 0,0.533929 0.508265,0.800894 1.524529,0.800894 1.016265,0 1.972204,-0.232569 2.868084,-0.697706 0.912812,-0.465138 1.825889,-1.042194 2.738702,-1.731169 0.930275,-0.706173 1.825889,-1.472671 2.687373,-2.299494 l 2.325423,-2.325423 c 0.688975,-0.723635 1.2573,-1.343554 1.705239,-1.860285 0.44794,-0.534194 0.714904,-0.844286 0.800894,-0.930275 l 0.516731,0.465137 c -0.172244,0.172244 -0.499533,0.542396 -0.981869,1.110986 -0.464872,0.551127 -1.05066,1.205706 -1.756833,1.963737 -0.706173,0.740569 -1.4986,1.524529 -2.377281,2.351352 -0.878417,0.826823 -1.799961,1.58459 -2.764631,2.273565 -2.221971,1.602052 -4.168511,2.402946 -5.839355,2.402946 -1.068123,0 -1.92061,-0.189442 -2.557991,-0.568325 -0.637382,-0.396346 -0.95594,-0.844021 -0.95594,-1.343554 0,-0.499534 0.05159,-0.947473 0.155046,-1.343555 0.103187,-0.396345 0.292629,-0.86995 0.568325,-1.421077 0.275696,-0.551391 0.66331,-1.197239 1.162844,-1.938073 0.482335,-0.740568 1.119452,-1.627716 1.911879,-2.661179 0.775229,-1.033727 1.722702,-2.230702 2.842154,-3.591718 l 3.979069,-4.702414 c 0.206904,0.05167 0.628914,0.0775 1.266296,0.0775 h 1.214173 c 0.447939,0 0.809625,-0.01722 1.08532,-0.05167 -5.70177,6.804104 -8.90561,10.679721 -9.611783,11.627194 -0.723635,0.930275 -1.257565,1.662377 -1.602052,2.196306 -0.602721,0.912812 -0.904346,1.644915 -0.904346,2.196306 z m 11.963136,-0.05186 c 0,0.56859 0.413543,0.852752 1.240366,0.852752 0.826823,0 1.70524,-0.215371 2.63525,-0.645848 0.947473,-0.44794 1.877748,-1.007798 2.790561,-1.679575 0.930275,-0.671777 1.825889,-1.403879 2.687373,-2.196306 0.86122,-0.809625 1.64491,-1.576123 2.35109,-2.299494 l 1.78302,-1.912144 c 0.48234,-0.551127 0.80936,-0.912812 0.98187,-1.085056 l 0.51673,0.439208 c -0.18944,0.189442 -0.54266,0.568325 -1.05939,1.136915 -0.49953,0.568325 -1.11971,1.222904 -1.86055,1.963473 -0.72337,0.740833 -1.54146,1.524529 -2.454537,2.351352 -0.895615,0.826823 -1.834356,1.584854 -2.816225,2.273829 -2.291027,1.584854 -4.297892,2.377017 -6.020329,2.377017 -0.723636,0 -1.31789,-0.197908 -1.783027,-0.594254 -0.482071,-0.396082 -0.723371,-0.818092 -0.723371,-1.266032 0,-0.465137 0.02593,-0.835289 0.07752,-1.110985 0.0344,-0.275696 0.12065,-0.585788 0.258498,-0.930275 0.137583,-0.361685 0.335756,-0.774965 0.594254,-1.240102 0.258233,-0.482336 0.602721,-1.059392 1.033462,-1.731169 l 3.95314,-5.839619 19.973135,-28.5511131 c 1.2401,0.1722549 2.43734,0.1722549 3.59145,0 C 101.24531,32.65741 92.736048,44.517252 92.15026,45.395668 c -0.585522,0.861219 -1.016264,1.515798 -1.291695,1.963738 -0.275696,0.430477 -0.482336,0.783696 -0.620184,1.059392 -0.206639,0.413279 -0.310091,0.774964 -0.310091,1.085056 z m 11.78216,0 c 0,0.56859 0.41354,0.852752 1.24037,0.852752 0.82682,0 1.70524,-0.215371 2.63551,-0.645848 0.94721,-0.44794 1.87748,-1.007798 2.79056,-1.679575 0.93001,-0.671777 1.82589,-1.403879 2.68711,-2.196306 0.86122,-0.809625 1.64491,-1.576123 2.35135,-2.299494 l 1.78276,-1.912144 c 0.48234,-0.551127 0.80963,-0.912812 0.98187,-1.085056 l 0.51673,0.439208 c -0.18944,0.189442 -0.54266,0.568325 -1.05939,1.136915 -0.49953,0.568325 -1.11971,1.222904 -1.86028,1.963473 -0.72364,0.740833 -1.54173,1.524529 -2.45481,2.351352 -0.89561,0.826823 -1.83435,1.584854 -2.81622,2.273829 -2.29103,1.584854 -4.29789,2.377017 -6.02033,2.377017 -0.72337,0 -1.31763,-0.197908 -1.78276,-0.594254 -0.48234,-0.396082 -0.723639,-0.818092 -0.723639,-1.266032 0,-0.465137 0.02593,-0.835289 0.07752,-1.110985 0.0344,-0.275696 0.12065,-0.585788 0.2585,-0.930275 0.13785,-0.361685 0.33576,-0.774965 0.59426,-1.240102 0.25849,-0.482336 0.60298,-1.059392 1.03346,-1.731169 l 3.9534,-5.839619 19.97287,-28.5511131 c 1.2401,0.1722549 2.43734,0.1722549 3.59145,0 -16.433,22.8409821 -24.94253,34.7008241 -25.52805,35.5792401 -0.58579,0.861219 -1.01627,1.515798 -1.29196,1.963738 -0.2757,0.430477 -0.48234,0.783696 -0.62019,1.059392 -0.20664,0.413279 -0.31009,0.774964 -0.31009,1.085056 z m 24.59805,1.576123 c -1.72244,0 -2.58392,-0.533929 -2.58392,-1.601788 0,-0.878681 0.49953,-1.980935 1.4986,-3.307291 l 1.62798,-2.06719 -0.2585,-0.103187 c -2.89375,3.565525 -5.62398,5.804958 -8.19071,6.71777 -0.70617,0.2413 -1.31762,0.361686 -1.83435,0.361686 -2.11879,0 -3.17818,-1.128183 -3.17818,-3.384815 0,-2.652712 1.05939,-5.184775 3.17818,-7.596452 3.13505,-3.651779 6.28729,-5.813478 9.45674,-6.485281 0.94747,-0.189495 1.75683,-0.284216 2.42861,-0.284216 0.67204,0 1.19724,0.05167 1.57638,0.15502 0.39608,0.08612 0.74057,0.215318 1.03347,0.387561 0.62018,0.396187 0.93001,0.887122 0.93001,1.472803 0,0.568431 -0.10319,1.111065 -0.30983,1.627796 l 2.53206,-3.126422 c 0.46514,0.137795 0.89562,0.206692 1.29196,0.206692 1.01627,0 1.74837,-0.03445 2.19604,-0.103346 l -8.70743,10.490412 c -2.06693,2.411412 -3.10039,4.108185 -3.10039,5.090054 0,0.551127 0.32729,0.826823 0.9816,0.826823 0.65458,0 1.40388,-0.198173 2.24817,-0.594254 0.86122,-0.396346 1.7137,-0.904346 2.55799,-1.524529 0.84402,-0.620184 1.66211,-1.309159 2.45454,-2.066925 0.80962,-0.758032 1.55019,-1.4986 2.22197,-2.222236 0.68897,-0.723371 1.29196,-1.395148 1.80869,-2.015331 l 1.24037,-1.395148 0.54266,0.439208 -1.31789,1.4986 c -4.96094,5.735902 -9.06912,8.603986 -12.32482,8.603986 z m -7.15725,-9.301692 c -2.42861,2.945606 -3.64304,5.357019 -3.64304,7.234767 0,0.861219 0.38761,1.29196 1.16258,1.29196 2.51486,0 6.14097,-2.782094 10.87807,-8.345752 l 2.17038,-2.60985 c 1.03346,-1.567392 1.5502,-2.704306 1.5502,-3.410532 0,-1.205786 -0.60299,-1.808692 -1.8087,-1.808692 -1.63644,0 -3.9878,1.395254 -7.05379,4.185762 -1.05066,0.96467 -2.13598,2.118783 -3.2557,3.462337 z m 28.06039,4.4958 c 0.20664,0.0344 0.46513,0.05186 0.77523,0.05186 0.32729,0 0.71464,-0.12065 1.16258,-0.36195 0.44793,-0.241035 0.90434,-0.551127 1.36948,-0.93001 0.48233,-0.379148 0.95594,-0.792427 1.42108,-1.240367 0.46513,-0.465137 0.88714,-0.904345 1.26603,-1.317625 0.39634,-0.430741 0.74083,-0.818356 1.03346,-1.162843 l 0.59452,-0.774965 0.56832,0.439208 c -0.20664,0.20664 -0.4736,0.490802 -0.80089,0.852488 l -1.08532,1.240367 c -2.39422,2.58392 -4.28916,3.875616 -5.68431,3.875616 h -0.43921 c -0.13785,0 -0.27569,-0.0172 -0.41354,-0.05159 -1.44701,3.152246 -4.52173,4.728369 -9.22417,4.728369 -2.04999,0 -3.53986,-0.490802 -4.47013,-1.472671 -0.39608,-0.430741 -0.59426,-0.981868 -0.59426,-1.653645 0,-0.671778 0.16378,-1.240367 0.49107,-1.705505 0.30983,-0.482335 0.68024,-0.878416 1.11098,-1.188508 0.87842,-0.637381 1.67085,-0.95594 2.37702,-0.95594 0.68898,0 1.03346,0.32729 1.03346,0.981869 -0.0516,0.44794 -0.43047,0.783696 -1.13665,1.007534 -0.2241,0.06906 -0.43947,0.103452 -0.64611,0.103452 -0.22384,0 -0.43048,-0.06879 -0.62018,-0.20664 -0.20664,-0.155046 -0.37015,-0.266965 -0.4908,-0.336021 -0.10346,0.103452 -0.23257,0.224102 -0.38762,0.361686 -0.17224,0.137848 -0.33575,0.301625 -0.4908,0.491066 -0.37915,0.465138 -0.56859,0.947473 -0.56859,1.447007 0,0.482335 0.16378,0.869685 0.49107,1.162579 0.32729,0.292894 0.71464,0.516731 1.16258,0.671777 0.67177,0.2413 1.37821,0.361685 2.11878,0.361685 0.72337,0 1.47267,-0.154781 2.2479,-0.464873 0.79243,-0.310091 1.56766,-0.826823 2.32542,-1.550458 2.08439,-1.980935 3.21257,-4.91781 3.38481,-8.81089 0.10346,-2.618052 0.42201,-4.667964 0.95594,-6.149366 0.0175,-0.05167 0.0259,-0.129196 0.0259,-0.232542 l -6.09785,7.493158 c -0.34448,0.41328 -0.59425,0.680244 -0.7493,0.800894 -0.17224,0.12065 -0.25823,0.180975 -0.25823,0.180975 -0.2069,0.0172 -0.34449,-0.03466 -0.41354,-0.155046 -0.0344,-0.08625 0.0431,-0.249766 0.23256,-0.491066 4.44421,-5.305372 6.94187,-8.31985 7.493,-9.0433 0.2757,-1.343607 0.72364,-2.015384 1.34356,-2.015384 0.29289,0 0.53419,0.0775 0.72363,0.232542 0.20664,0.15502 0.31009,0.353113 0.31009,0.594281 -0.0172,0.327289 -0.28442,0.792374 -0.80116,1.395254 -0.49953,0.585681 -0.80962,0.964617 -0.93001,1.136888 -0.10345,0.155019 -0.17224,0.292841 -0.2069,0.413411 -0.0344,0.103346 -0.0516,0.206693 -0.0516,0.310065 v 0.310039 c -0.0172,0.465111 0.0259,1.016318 0.12911,1.653672 l 0.64612,4.289161 c 0.37888,2.342621 0.30136,4.237302 -0.23257,5.684308 z"
         fill="#ca9d75"
         id="path5"
         style="display:inline;stroke-width:0.264583"
         inkscape:label="path1" /></clipPath></defs><g
     inkscape:label="Слой 1"
     inkscape:groupmode="layer"
     id="layer1"><g
       style="fill:none"
       id="g1"
       transform="matrix(0.26458333,0,0,0.26458333,48.598521,9.7533827)"><path
         d="m 53.460201,17.389353 2.87754,-2.0756 3.915344,-1.17932 3.915344,0.5189 0.896281,1.60387 -5.189008,8.86849 1.132146,1.08498 h 2.83037 l 9.104352,-4.8588 5.755081,-5.80226 -6.415499,6.46268 -8.467183,12.96888 -11.911471,15.94805 -2.736024,0.89628 38.115629,-27.54892 7.830688,-9.24587 0.04717,-2.92471 -2.358641,-0.28304 -3.443616,1.98126 -3.066232,4.71728 -0.849109,6.22681 1.745393,3.72665 2.736022,1.36801 1.83974,-0.37738 2.264294,-4.81163 -17.31242,24.19965 1.179321,1.60388 2.547332,0.37738 4.71728,-2.45299 10.613882,-9.95346 20.742803,-29.5813403 -27.189077,38.6521603 -0.266848,2.60179 2.068084,0.73384 5.403707,-2.00138 7.805354,-6.67124 24.2032,-33.5705703 -28.07252,40.2418103 1.33425,1.93466 3.53576,-0.66712 4.53644,-2.73521 11.54125,-10.7407 6.73796,-3.00206 2.86863,0.5337 0.80055,1.33425 -1.73452,-1.86795 -8.87275,4.20288 -6.60453,7.93878 0.0667,4.46973 3.33562,0.26685 5.33699,-3.13548 7.39364,-8.35524 5.89636,-6.06886 -9.67331,12.87549 -2.21573,4.48395 2.00138,0.46699 2.93534,-0.66712 3.33563,-2.46836 0.60041,2.73521 4.60315,1.0674 5.67726,-3.20694 1.5944,-1.7965 h 3.33562 l 2.80192,-1.80123 3.26891,-3.7359 -4.13617,4.2696 -1.93466,1.40096 -3.26891,-0.20014 2.00137,-15.67742 -11.8081,14.87687 -2.66849,1.86795"
         id="path2"
         class="class1"
         style="stroke-linejoin:round;stroke-linecap:round;stroke-width:3.065;display:inline;image-rendering:auto;stroke:#ca9d75;stroke-opacity:1"
         sodipodi:nodetypes="ccccccccccccccccccccccccccccccccccccccccccccccccccccccccccccccccccccccc"
         inkscape:label=""
         onload="setTimeout(()=&gt;this.style.strokeDashoffset=&quot;0&quot;, 200);"
         onclick=""
         transform="matrix(3.7795276,0,0,3.7795276,-183.67945,-36.863179)"
         clip-path="url(#clipPath5)" /></g></g>
                  <script>
  setTimeout(()=>document.querySelector('#path2').style.strokeDashoffset = "0", 2000);
</script></svg>

